M48
; DRILL file {KiCad (7.0.0)} date Mon Apr 10 16:26:54 2023
; FORMAT={-:-/ absolute / inch / decimal}
; #@! TF.CreationDate,2023-04-10T16:26:54+12:00
; #@! TF.GenerationSoftware,Kicad,Pcbnew,(7.0.0)
; #@! TF.FileFunction,Plated,1,2,PTH
FMAT,2
INCH
; #@! TA.AperFunction,Plated,PTH,ComponentDrill
T1C0.0598
; #@! TA.AperFunction,Plated,PTH,ComponentDrill
T2C0.1260
%
G90
G05
T1
X3.2Y-3.7
X3.2Y-3.9
X3.2Y-4.1
X3.2Y-4.3
X3.838Y-4.251
X3.84Y-3.75
X4.038Y-4.251
X4.04Y-3.75
X4.238Y-4.251
X4.24Y-3.75
X4.438Y-4.251
X4.44Y-3.75
X4.89Y-3.75
X4.89Y-4.25
X5.09Y-3.75
X5.09Y-4.25
X5.29Y-3.75
X5.29Y-4.25
X5.49Y-3.75
X5.49Y-4.25
T2
X3.55Y-4.01
X5.79Y-4.0
T0
M30
