%TF.GenerationSoftware,KiCad,Pcbnew,(7.0.0)*%
%TF.CreationDate,2023-04-10T16:26:54+12:00*%
%TF.ProjectId,can_expansion_hub,63616e5f-6578-4706-916e-73696f6e5f68,rev?*%
%TF.SameCoordinates,Original*%
%TF.FileFunction,Legend,Top*%
%TF.FilePolarity,Positive*%
%FSLAX46Y46*%
G04 Gerber Fmt 4.6, Leading zero omitted, Abs format (unit mm)*
G04 Created by KiCad (PCBNEW (7.0.0)) date 2023-04-10 16:26:54*
%MOMM*%
%LPD*%
G01*
G04 APERTURE LIST*
%ADD10C,0.150000*%
%ADD11C,0.120000*%
%ADD12C,5.500000*%
%ADD13R,3.000000X3.000000*%
%ADD14C,3.000000*%
G04 APERTURE END LIST*
D10*
%TO.C,J3*%
X131512666Y-99417380D02*
X131512666Y-100131666D01*
X131512666Y-100131666D02*
X131465047Y-100274523D01*
X131465047Y-100274523D02*
X131369809Y-100369761D01*
X131369809Y-100369761D02*
X131226952Y-100417380D01*
X131226952Y-100417380D02*
X131131714Y-100417380D01*
X131893619Y-99417380D02*
X132512666Y-99417380D01*
X132512666Y-99417380D02*
X132179333Y-99798333D01*
X132179333Y-99798333D02*
X132322190Y-99798333D01*
X132322190Y-99798333D02*
X132417428Y-99845952D01*
X132417428Y-99845952D02*
X132465047Y-99893571D01*
X132465047Y-99893571D02*
X132512666Y-99988809D01*
X132512666Y-99988809D02*
X132512666Y-100226904D01*
X132512666Y-100226904D02*
X132465047Y-100322142D01*
X132465047Y-100322142D02*
X132417428Y-100369761D01*
X132417428Y-100369761D02*
X132322190Y-100417380D01*
X132322190Y-100417380D02*
X132036476Y-100417380D01*
X132036476Y-100417380D02*
X131941238Y-100369761D01*
X131941238Y-100369761D02*
X131893619Y-100322142D01*
%TO.C,J2*%
X104842666Y-99417380D02*
X104842666Y-100131666D01*
X104842666Y-100131666D02*
X104795047Y-100274523D01*
X104795047Y-100274523D02*
X104699809Y-100369761D01*
X104699809Y-100369761D02*
X104556952Y-100417380D01*
X104556952Y-100417380D02*
X104461714Y-100417380D01*
X105271238Y-99512619D02*
X105318857Y-99465000D01*
X105318857Y-99465000D02*
X105414095Y-99417380D01*
X105414095Y-99417380D02*
X105652190Y-99417380D01*
X105652190Y-99417380D02*
X105747428Y-99465000D01*
X105747428Y-99465000D02*
X105795047Y-99512619D01*
X105795047Y-99512619D02*
X105842666Y-99607857D01*
X105842666Y-99607857D02*
X105842666Y-99703095D01*
X105842666Y-99703095D02*
X105795047Y-99845952D01*
X105795047Y-99845952D02*
X105223619Y-100417380D01*
X105223619Y-100417380D02*
X105842666Y-100417380D01*
%TO.C,J5*%
X131472666Y-102517380D02*
X131472666Y-103231666D01*
X131472666Y-103231666D02*
X131425047Y-103374523D01*
X131425047Y-103374523D02*
X131329809Y-103469761D01*
X131329809Y-103469761D02*
X131186952Y-103517380D01*
X131186952Y-103517380D02*
X131091714Y-103517380D01*
X132425047Y-102517380D02*
X131948857Y-102517380D01*
X131948857Y-102517380D02*
X131901238Y-102993571D01*
X131901238Y-102993571D02*
X131948857Y-102945952D01*
X131948857Y-102945952D02*
X132044095Y-102898333D01*
X132044095Y-102898333D02*
X132282190Y-102898333D01*
X132282190Y-102898333D02*
X132377428Y-102945952D01*
X132377428Y-102945952D02*
X132425047Y-102993571D01*
X132425047Y-102993571D02*
X132472666Y-103088809D01*
X132472666Y-103088809D02*
X132472666Y-103326904D01*
X132472666Y-103326904D02*
X132425047Y-103422142D01*
X132425047Y-103422142D02*
X132377428Y-103469761D01*
X132377428Y-103469761D02*
X132282190Y-103517380D01*
X132282190Y-103517380D02*
X132044095Y-103517380D01*
X132044095Y-103517380D02*
X131948857Y-103469761D01*
X131948857Y-103469761D02*
X131901238Y-103422142D01*
%TO.C,J4*%
X104751866Y-102542780D02*
X104751866Y-103257066D01*
X104751866Y-103257066D02*
X104704247Y-103399923D01*
X104704247Y-103399923D02*
X104609009Y-103495161D01*
X104609009Y-103495161D02*
X104466152Y-103542780D01*
X104466152Y-103542780D02*
X104370914Y-103542780D01*
X105656628Y-102876114D02*
X105656628Y-103542780D01*
X105418533Y-102495161D02*
X105180438Y-103209447D01*
X105180438Y-103209447D02*
X105799485Y-103209447D01*
%TO.C,J1*%
X83441380Y-102187333D02*
X84155666Y-102187333D01*
X84155666Y-102187333D02*
X84298523Y-102234952D01*
X84298523Y-102234952D02*
X84393761Y-102330190D01*
X84393761Y-102330190D02*
X84441380Y-102473047D01*
X84441380Y-102473047D02*
X84441380Y-102568285D01*
X84441380Y-101187333D02*
X84441380Y-101758761D01*
X84441380Y-101473047D02*
X83441380Y-101473047D01*
X83441380Y-101473047D02*
X83584238Y-101568285D01*
X83584238Y-101568285D02*
X83679476Y-101663523D01*
X83679476Y-101663523D02*
X83727095Y-101758761D01*
D11*
%TO.C,J3*%
X141986000Y-99060000D02*
X141986000Y-91440000D01*
X141986000Y-99060000D02*
X121666000Y-99060000D01*
X141986000Y-91440000D02*
X121666000Y-91440000D01*
X121666000Y-92710000D02*
X141986000Y-92710000D01*
X121666000Y-91440000D02*
X121666000Y-99060000D01*
%TO.C,J2*%
X115316000Y-99060000D02*
X115316000Y-91440000D01*
X115316000Y-99060000D02*
X94996000Y-99060000D01*
X115316000Y-91440000D02*
X94996000Y-91440000D01*
X94996000Y-92710000D02*
X115316000Y-92710000D01*
X94996000Y-91440000D02*
X94996000Y-99060000D01*
%TO.C,J5*%
X121666000Y-104140000D02*
X121666000Y-111760000D01*
X121666000Y-104140000D02*
X141986000Y-104140000D01*
X121666000Y-111760000D02*
X141986000Y-111760000D01*
X141986000Y-110490000D02*
X121666000Y-110490000D01*
X141986000Y-111760000D02*
X141986000Y-104140000D01*
%TO.C,J4*%
X94945200Y-104165400D02*
X94945200Y-111785400D01*
X94945200Y-104165400D02*
X115265200Y-104165400D01*
X94945200Y-111785400D02*
X115265200Y-111785400D01*
X115265200Y-110515400D02*
X94945200Y-110515400D01*
X115265200Y-111785400D02*
X115265200Y-104165400D01*
%TO.C,J1*%
X85090000Y-91440000D02*
X77470000Y-91440000D01*
X85090000Y-91440000D02*
X85090000Y-111760000D01*
X77470000Y-91440000D02*
X77470000Y-111760000D01*
X78740000Y-111760000D02*
X78740000Y-91440000D01*
X77470000Y-111760000D02*
X85090000Y-111760000D01*
%TD*%
%LPC*%
D12*
%TO.C,REF\u002A\u002A*%
X90170000Y-101854000D03*
%TD*%
D13*
%TO.C,J3*%
X139445999Y-95249999D03*
D14*
X134366000Y-95250000D03*
X129286000Y-95250000D03*
X124206000Y-95250000D03*
%TD*%
D13*
%TO.C,J2*%
X112775999Y-95249999D03*
D14*
X107696000Y-95250000D03*
X102616000Y-95250000D03*
X97536000Y-95250000D03*
%TD*%
D13*
%TO.C,J5*%
X124205999Y-107949999D03*
D14*
X129286000Y-107950000D03*
X134366000Y-107950000D03*
X139446000Y-107950000D03*
%TD*%
D13*
%TO.C,J4*%
X97485199Y-107975399D03*
D14*
X102565200Y-107975400D03*
X107645200Y-107975400D03*
X112725200Y-107975400D03*
%TD*%
D12*
%TO.C,REF\u002A\u002A*%
X147066000Y-101600000D03*
%TD*%
D13*
%TO.C,J1*%
X81279999Y-93979999D03*
D14*
X81280000Y-99060000D03*
X81280000Y-104140000D03*
X81280000Y-109220000D03*
%TD*%
M02*
