%TF.GenerationSoftware,KiCad,Pcbnew,(7.0.0)*%
%TF.CreationDate,2023-04-10T16:26:54+12:00*%
%TF.ProjectId,can_expansion_hub,63616e5f-6578-4706-916e-73696f6e5f68,rev?*%
%TF.SameCoordinates,Original*%
%TF.FileFunction,Copper,L1,Top*%
%TF.FilePolarity,Positive*%
%FSLAX46Y46*%
G04 Gerber Fmt 4.6, Leading zero omitted, Abs format (unit mm)*
G04 Created by KiCad (PCBNEW (7.0.0)) date 2023-04-10 16:26:54*
%MOMM*%
%LPD*%
G01*
G04 APERTURE LIST*
%TA.AperFunction,ComponentPad*%
%ADD10C,5.500000*%
%TD*%
%TA.AperFunction,ComponentPad*%
%ADD11R,3.000000X3.000000*%
%TD*%
%TA.AperFunction,ComponentPad*%
%ADD12C,3.000000*%
%TD*%
%TA.AperFunction,Conductor*%
%ADD13C,2.000000*%
%TD*%
G04 APERTURE END LIST*
D10*
%TO.P,REF\u002A\u002A,1*%
%TO.N,GND*%
X90170000Y-101854000D03*
%TD*%
D11*
%TO.P,J3,1,Pin_1*%
%TO.N,VCC*%
X139445999Y-95249999D03*
D12*
%TO.P,J3,2,Pin_2*%
%TO.N,GND*%
X134366000Y-95250000D03*
%TO.P,J3,3,Pin_3*%
%TO.N,CAN_H*%
X129286000Y-95250000D03*
%TO.P,J3,4,Pin_4*%
%TO.N,CAN_L*%
X124206000Y-95250000D03*
%TD*%
D11*
%TO.P,J2,1,Pin_1*%
%TO.N,VCC*%
X112775999Y-95249999D03*
D12*
%TO.P,J2,2,Pin_2*%
%TO.N,GND*%
X107696000Y-95250000D03*
%TO.P,J2,3,Pin_3*%
%TO.N,CAN_H*%
X102616000Y-95250000D03*
%TO.P,J2,4,Pin_4*%
%TO.N,CAN_L*%
X97536000Y-95250000D03*
%TD*%
D11*
%TO.P,J5,1,Pin_1*%
%TO.N,VCC*%
X124205999Y-107949999D03*
D12*
%TO.P,J5,2,Pin_2*%
%TO.N,GND*%
X129286000Y-107950000D03*
%TO.P,J5,3,Pin_3*%
%TO.N,CAN_H*%
X134366000Y-107950000D03*
%TO.P,J5,4,Pin_4*%
%TO.N,CAN_L*%
X139446000Y-107950000D03*
%TD*%
D11*
%TO.P,J4,1,Pin_1*%
%TO.N,VCC*%
X97485199Y-107975399D03*
D12*
%TO.P,J4,2,Pin_2*%
%TO.N,GND*%
X102565200Y-107975400D03*
%TO.P,J4,3,Pin_3*%
%TO.N,CAN_H*%
X107645200Y-107975400D03*
%TO.P,J4,4,Pin_4*%
%TO.N,CAN_L*%
X112725200Y-107975400D03*
%TD*%
D10*
%TO.P,REF\u002A\u002A,1*%
%TO.N,GND*%
X147066000Y-101600000D03*
%TD*%
D11*
%TO.P,J1,1,Pin_1*%
%TO.N,VCC*%
X81279999Y-93979999D03*
D12*
%TO.P,J1,2,Pin_2*%
%TO.N,GND*%
X81280000Y-99060000D03*
%TO.P,J1,3,Pin_3*%
%TO.N,CAN_H*%
X81280000Y-104140000D03*
%TO.P,J1,4,Pin_4*%
%TO.N,CAN_L*%
X81280000Y-109220000D03*
%TD*%
D13*
%TO.N,CAN_H*%
X129286000Y-95250000D02*
X136144000Y-102108000D01*
X93380600Y-106680000D02*
X96936600Y-103124000D01*
X136144000Y-102108000D02*
X136144000Y-106172000D01*
X96936600Y-103124000D02*
X102793800Y-103124000D01*
X83820000Y-106680000D02*
X93380600Y-106680000D01*
X106680000Y-99314000D02*
X102616000Y-95250000D01*
X125222000Y-99314000D02*
X106680000Y-99314000D01*
X129286000Y-95250000D02*
X125222000Y-99314000D01*
X107645200Y-107975400D02*
X111988600Y-103632000D01*
X81280000Y-104140000D02*
X83820000Y-106680000D01*
X111988600Y-103632000D02*
X130048000Y-103632000D01*
X136144000Y-106172000D02*
X134366000Y-107950000D01*
X102793800Y-103124000D02*
X107645200Y-107975400D01*
X130048000Y-103632000D02*
X134366000Y-107950000D01*
%TD*%
%TA.AperFunction,Conductor*%
%TO.N,VCC*%
G36*
X150814000Y-90440613D02*
G01*
X150859387Y-90486000D01*
X150876000Y-90548000D01*
X150876000Y-112652000D01*
X150859387Y-112714000D01*
X150814000Y-112759387D01*
X150752000Y-112776000D01*
X76832000Y-112776000D01*
X76770000Y-112759387D01*
X76724613Y-112714000D01*
X76708000Y-112652000D01*
X76708000Y-109220000D01*
X79274390Y-109220000D01*
X79274706Y-109224418D01*
X79294487Y-109501005D01*
X79294488Y-109501014D01*
X79294804Y-109505428D01*
X79295744Y-109509753D01*
X79295746Y-109509761D01*
X79307685Y-109564641D01*
X79355631Y-109785046D01*
X79357175Y-109789185D01*
X79357176Y-109789189D01*
X79426629Y-109975400D01*
X79455633Y-110053161D01*
X79457753Y-110057043D01*
X79457756Y-110057050D01*
X79590647Y-110300420D01*
X79592774Y-110304315D01*
X79764261Y-110533395D01*
X79966605Y-110735739D01*
X80195685Y-110907226D01*
X80446839Y-111044367D01*
X80714954Y-111144369D01*
X80994572Y-111205196D01*
X81280000Y-111225610D01*
X81565428Y-111205196D01*
X81845046Y-111144369D01*
X82113161Y-111044367D01*
X82364315Y-110907226D01*
X82593395Y-110735739D01*
X82795739Y-110533395D01*
X82967226Y-110304315D01*
X83104367Y-110053161D01*
X83204369Y-109785046D01*
X83262044Y-109519918D01*
X95485200Y-109519918D01*
X95485553Y-109526514D01*
X95490773Y-109575067D01*
X95494311Y-109590041D01*
X95538747Y-109709177D01*
X95547162Y-109724589D01*
X95622698Y-109825492D01*
X95635107Y-109837901D01*
X95736010Y-109913437D01*
X95751422Y-109921852D01*
X95870558Y-109966288D01*
X95885532Y-109969826D01*
X95934085Y-109975046D01*
X95940682Y-109975400D01*
X96968874Y-109975400D01*
X96981749Y-109971949D01*
X96985200Y-109959074D01*
X97985200Y-109959074D01*
X97988650Y-109971949D01*
X98001526Y-109975400D01*
X99029718Y-109975400D01*
X99036314Y-109975046D01*
X99084867Y-109969826D01*
X99099841Y-109966288D01*
X99218977Y-109921852D01*
X99234389Y-109913437D01*
X99335292Y-109837901D01*
X99347701Y-109825492D01*
X99423237Y-109724589D01*
X99431652Y-109709177D01*
X99476088Y-109590041D01*
X99479626Y-109575067D01*
X99484846Y-109526514D01*
X99485200Y-109519918D01*
X99485200Y-108491726D01*
X99481749Y-108478850D01*
X99468874Y-108475400D01*
X98001526Y-108475400D01*
X97988650Y-108478850D01*
X97985200Y-108491726D01*
X97985200Y-109959074D01*
X96985200Y-109959074D01*
X96985200Y-108491726D01*
X96981749Y-108478850D01*
X96968874Y-108475400D01*
X95501526Y-108475400D01*
X95488650Y-108478850D01*
X95485200Y-108491726D01*
X95485200Y-109519918D01*
X83262044Y-109519918D01*
X83265196Y-109505428D01*
X83285610Y-109220000D01*
X83265196Y-108934572D01*
X83204369Y-108654954D01*
X83104367Y-108386839D01*
X83006946Y-108208427D01*
X82991787Y-108150400D01*
X83005635Y-108092044D01*
X83045250Y-108047013D01*
X83101366Y-108025842D01*
X83160852Y-108033484D01*
X83184421Y-108042681D01*
X83243247Y-108065635D01*
X83247982Y-108067596D01*
X83310851Y-108095172D01*
X83331119Y-108104063D01*
X83353890Y-108109829D01*
X83368514Y-108114514D01*
X83376876Y-108117777D01*
X83385603Y-108121183D01*
X83385606Y-108121184D01*
X83390386Y-108123049D01*
X83479189Y-108141669D01*
X83484159Y-108142818D01*
X83572179Y-108165108D01*
X83595583Y-108167046D01*
X83610784Y-108169261D01*
X83633763Y-108174080D01*
X83724454Y-108177830D01*
X83729537Y-108178146D01*
X83757933Y-108180500D01*
X83786412Y-108180500D01*
X83791536Y-108180605D01*
X83882221Y-108184357D01*
X83905525Y-108181452D01*
X83920864Y-108180500D01*
X93279735Y-108180500D01*
X93295072Y-108181452D01*
X93313292Y-108183723D01*
X93313293Y-108183723D01*
X93318379Y-108184357D01*
X93409072Y-108180605D01*
X93414196Y-108180500D01*
X93440098Y-108180500D01*
X93442667Y-108180500D01*
X93471041Y-108178148D01*
X93476140Y-108177831D01*
X93566837Y-108174081D01*
X93589830Y-108169259D01*
X93605017Y-108167046D01*
X93628421Y-108165108D01*
X93716448Y-108142815D01*
X93721354Y-108141680D01*
X93810214Y-108123049D01*
X93832086Y-108114513D01*
X93846711Y-108109828D01*
X93869481Y-108104063D01*
X93952608Y-108067599D01*
X93957299Y-108065656D01*
X94041874Y-108032656D01*
X94062050Y-108020632D01*
X94075701Y-108013605D01*
X94097207Y-108004173D01*
X94101503Y-108001366D01*
X94101509Y-108001363D01*
X94173187Y-107954533D01*
X94177516Y-107951830D01*
X94255494Y-107905366D01*
X94273420Y-107890181D01*
X94285715Y-107881013D01*
X94305385Y-107868164D01*
X94372161Y-107806691D01*
X94375983Y-107803315D01*
X94397726Y-107784902D01*
X94417868Y-107764759D01*
X94421567Y-107761210D01*
X94480023Y-107707398D01*
X94488338Y-107699744D01*
X94502767Y-107681203D01*
X94512925Y-107669701D01*
X95273519Y-106909107D01*
X95322882Y-106878858D01*
X95380598Y-106874316D01*
X95434085Y-106896471D01*
X95471685Y-106940494D01*
X95485200Y-106996789D01*
X95485200Y-107459074D01*
X95488650Y-107471949D01*
X95501526Y-107475400D01*
X96968874Y-107475400D01*
X96981749Y-107471949D01*
X96985200Y-107459074D01*
X97985200Y-107459074D01*
X97988650Y-107471949D01*
X98001526Y-107475400D01*
X99468874Y-107475400D01*
X99481749Y-107471949D01*
X99485200Y-107459074D01*
X99485200Y-106430882D01*
X99484846Y-106424285D01*
X99479626Y-106375732D01*
X99476088Y-106360758D01*
X99431652Y-106241622D01*
X99423237Y-106226210D01*
X99347701Y-106125307D01*
X99335292Y-106112898D01*
X99234389Y-106037362D01*
X99218977Y-106028947D01*
X99099841Y-105984511D01*
X99084867Y-105980973D01*
X99036314Y-105975753D01*
X99029718Y-105975400D01*
X98001526Y-105975400D01*
X97988650Y-105978850D01*
X97985200Y-105991726D01*
X97985200Y-107459074D01*
X96985200Y-107459074D01*
X96985200Y-105991726D01*
X96981749Y-105978850D01*
X96968874Y-105975400D01*
X96506589Y-105975400D01*
X96450294Y-105961885D01*
X96406271Y-105924285D01*
X96384116Y-105870798D01*
X96388658Y-105813082D01*
X96418908Y-105763719D01*
X97521808Y-104660819D01*
X97562036Y-104633939D01*
X97609489Y-104624500D01*
X102120910Y-104624500D01*
X102168363Y-104633939D01*
X102208591Y-104660819D01*
X103474459Y-105926687D01*
X103507142Y-105984561D01*
X103505244Y-106050998D01*
X103469311Y-106106912D01*
X103409665Y-106136238D01*
X103343444Y-106130550D01*
X103329089Y-106125196D01*
X103168527Y-106065309D01*
X103134389Y-106052576D01*
X103134385Y-106052575D01*
X103130246Y-106051031D01*
X103100275Y-106044511D01*
X102854961Y-105991146D01*
X102854953Y-105991144D01*
X102850628Y-105990204D01*
X102846214Y-105989888D01*
X102846205Y-105989887D01*
X102569618Y-105970106D01*
X102565200Y-105969790D01*
X102560782Y-105970106D01*
X102284194Y-105989887D01*
X102284183Y-105989888D01*
X102279772Y-105990204D01*
X102275448Y-105991144D01*
X102275438Y-105991146D01*
X102004479Y-106050090D01*
X102004476Y-106050090D01*
X102000154Y-106051031D01*
X101996018Y-106052573D01*
X101996010Y-106052576D01*
X101736187Y-106149485D01*
X101736176Y-106149489D01*
X101732039Y-106151033D01*
X101728161Y-106153150D01*
X101728149Y-106153156D01*
X101484779Y-106286047D01*
X101484771Y-106286051D01*
X101480885Y-106288174D01*
X101477335Y-106290831D01*
X101477331Y-106290834D01*
X101255356Y-106457002D01*
X101255349Y-106457007D01*
X101251805Y-106459661D01*
X101248674Y-106462791D01*
X101248667Y-106462798D01*
X101052598Y-106658867D01*
X101052591Y-106658874D01*
X101049461Y-106662005D01*
X101046807Y-106665549D01*
X101046802Y-106665556D01*
X100883145Y-106884177D01*
X100877974Y-106891085D01*
X100875851Y-106894971D01*
X100875847Y-106894979D01*
X100742956Y-107138349D01*
X100742950Y-107138361D01*
X100740833Y-107142239D01*
X100739289Y-107146376D01*
X100739285Y-107146387D01*
X100642376Y-107406210D01*
X100642373Y-107406218D01*
X100640831Y-107410354D01*
X100639890Y-107414676D01*
X100639890Y-107414679D01*
X100580946Y-107685638D01*
X100580944Y-107685648D01*
X100580004Y-107689972D01*
X100579688Y-107694383D01*
X100579687Y-107694394D01*
X100566040Y-107885215D01*
X100559590Y-107975400D01*
X100559906Y-107979818D01*
X100579687Y-108256405D01*
X100579688Y-108256414D01*
X100580004Y-108260828D01*
X100580944Y-108265153D01*
X100580946Y-108265161D01*
X100607416Y-108386839D01*
X100640831Y-108540446D01*
X100642375Y-108544585D01*
X100642376Y-108544589D01*
X100732809Y-108787050D01*
X100740833Y-108808561D01*
X100742953Y-108812443D01*
X100742956Y-108812450D01*
X100875847Y-109055820D01*
X100877974Y-109059715D01*
X101049461Y-109288795D01*
X101251805Y-109491139D01*
X101480885Y-109662626D01*
X101662169Y-109761614D01*
X101705079Y-109785046D01*
X101732039Y-109799767D01*
X102000154Y-109899769D01*
X102279772Y-109960596D01*
X102565200Y-109981010D01*
X102850628Y-109960596D01*
X103130246Y-109899769D01*
X103398361Y-109799767D01*
X103649515Y-109662626D01*
X103878595Y-109491139D01*
X104080939Y-109288795D01*
X104252426Y-109059715D01*
X104389567Y-108808561D01*
X104489569Y-108540446D01*
X104550396Y-108260828D01*
X104570810Y-107975400D01*
X104550396Y-107689972D01*
X104489569Y-107410354D01*
X104410048Y-107197152D01*
X104404361Y-107130933D01*
X104433687Y-107071287D01*
X104489601Y-107035354D01*
X104556038Y-107033456D01*
X104613912Y-107066139D01*
X105615853Y-108068080D01*
X105640966Y-108104249D01*
X105651856Y-108146914D01*
X105659687Y-108256405D01*
X105659688Y-108256413D01*
X105660004Y-108260828D01*
X105660944Y-108265153D01*
X105660946Y-108265161D01*
X105687416Y-108386839D01*
X105720831Y-108540446D01*
X105722375Y-108544585D01*
X105722376Y-108544589D01*
X105812809Y-108787050D01*
X105820833Y-108808561D01*
X105822953Y-108812443D01*
X105822956Y-108812450D01*
X105955847Y-109055820D01*
X105957974Y-109059715D01*
X106129461Y-109288795D01*
X106331805Y-109491139D01*
X106560885Y-109662626D01*
X106742169Y-109761614D01*
X106785079Y-109785046D01*
X106812039Y-109799767D01*
X107080154Y-109899769D01*
X107359772Y-109960596D01*
X107645200Y-109981010D01*
X107930628Y-109960596D01*
X108210246Y-109899769D01*
X108478361Y-109799767D01*
X108729515Y-109662626D01*
X108958595Y-109491139D01*
X109160939Y-109288795D01*
X109332426Y-109059715D01*
X109469567Y-108808561D01*
X109569569Y-108540446D01*
X109630396Y-108260828D01*
X109638542Y-108146913D01*
X109649431Y-108104251D01*
X109674542Y-108068084D01*
X110676487Y-107066139D01*
X110734361Y-107033457D01*
X110800798Y-107035355D01*
X110856712Y-107071288D01*
X110886037Y-107130934D01*
X110880350Y-107197155D01*
X110802376Y-107406210D01*
X110802373Y-107406218D01*
X110800831Y-107410354D01*
X110799890Y-107414676D01*
X110799890Y-107414679D01*
X110740946Y-107685638D01*
X110740944Y-107685648D01*
X110740004Y-107689972D01*
X110739688Y-107694383D01*
X110739687Y-107694394D01*
X110726040Y-107885215D01*
X110719590Y-107975400D01*
X110719906Y-107979818D01*
X110739687Y-108256405D01*
X110739688Y-108256414D01*
X110740004Y-108260828D01*
X110740944Y-108265153D01*
X110740946Y-108265161D01*
X110767416Y-108386839D01*
X110800831Y-108540446D01*
X110802375Y-108544585D01*
X110802376Y-108544589D01*
X110892809Y-108787050D01*
X110900833Y-108808561D01*
X110902953Y-108812443D01*
X110902956Y-108812450D01*
X111035847Y-109055820D01*
X111037974Y-109059715D01*
X111209461Y-109288795D01*
X111411805Y-109491139D01*
X111640885Y-109662626D01*
X111822169Y-109761614D01*
X111865079Y-109785046D01*
X111892039Y-109799767D01*
X112160154Y-109899769D01*
X112439772Y-109960596D01*
X112725200Y-109981010D01*
X113010628Y-109960596D01*
X113290246Y-109899769D01*
X113558361Y-109799767D01*
X113809515Y-109662626D01*
X114034081Y-109494518D01*
X122206000Y-109494518D01*
X122206353Y-109501114D01*
X122211573Y-109549667D01*
X122215111Y-109564641D01*
X122259547Y-109683777D01*
X122267962Y-109699189D01*
X122343498Y-109800092D01*
X122355907Y-109812501D01*
X122456810Y-109888037D01*
X122472222Y-109896452D01*
X122591358Y-109940888D01*
X122606332Y-109944426D01*
X122654885Y-109949646D01*
X122661482Y-109950000D01*
X123689674Y-109950000D01*
X123702549Y-109946549D01*
X123706000Y-109933674D01*
X124706000Y-109933674D01*
X124709450Y-109946549D01*
X124722326Y-109950000D01*
X125750518Y-109950000D01*
X125757114Y-109949646D01*
X125805667Y-109944426D01*
X125820641Y-109940888D01*
X125939777Y-109896452D01*
X125955189Y-109888037D01*
X126056092Y-109812501D01*
X126068501Y-109800092D01*
X126144037Y-109699189D01*
X126152452Y-109683777D01*
X126196888Y-109564641D01*
X126200426Y-109549667D01*
X126205646Y-109501114D01*
X126206000Y-109494518D01*
X126206000Y-108466326D01*
X126202549Y-108453450D01*
X126189674Y-108450000D01*
X124722326Y-108450000D01*
X124709450Y-108453450D01*
X124706000Y-108466326D01*
X124706000Y-109933674D01*
X123706000Y-109933674D01*
X123706000Y-108466326D01*
X123702549Y-108453450D01*
X123689674Y-108450000D01*
X122222326Y-108450000D01*
X122209450Y-108453450D01*
X122206000Y-108466326D01*
X122206000Y-109494518D01*
X114034081Y-109494518D01*
X114038595Y-109491139D01*
X114240939Y-109288795D01*
X114412426Y-109059715D01*
X114549567Y-108808561D01*
X114649569Y-108540446D01*
X114710396Y-108260828D01*
X114730810Y-107975400D01*
X114710396Y-107689972D01*
X114654642Y-107433674D01*
X122206000Y-107433674D01*
X122209450Y-107446549D01*
X122222326Y-107450000D01*
X123689674Y-107450000D01*
X123702549Y-107446549D01*
X123706000Y-107433674D01*
X124706000Y-107433674D01*
X124709450Y-107446549D01*
X124722326Y-107450000D01*
X126189674Y-107450000D01*
X126202549Y-107446549D01*
X126206000Y-107433674D01*
X126206000Y-106405482D01*
X126205646Y-106398885D01*
X126200426Y-106350332D01*
X126196888Y-106335358D01*
X126152452Y-106216222D01*
X126144037Y-106200810D01*
X126068501Y-106099907D01*
X126056092Y-106087498D01*
X125955189Y-106011962D01*
X125939777Y-106003547D01*
X125820641Y-105959111D01*
X125805667Y-105955573D01*
X125757114Y-105950353D01*
X125750518Y-105950000D01*
X124722326Y-105950000D01*
X124709450Y-105953450D01*
X124706000Y-105966326D01*
X124706000Y-107433674D01*
X123706000Y-107433674D01*
X123706000Y-105966326D01*
X123702549Y-105953450D01*
X123689674Y-105950000D01*
X122661482Y-105950000D01*
X122654885Y-105950353D01*
X122606332Y-105955573D01*
X122591358Y-105959111D01*
X122472222Y-106003547D01*
X122456810Y-106011962D01*
X122355907Y-106087498D01*
X122343498Y-106099907D01*
X122267962Y-106200810D01*
X122259547Y-106216222D01*
X122215111Y-106335358D01*
X122211573Y-106350332D01*
X122206353Y-106398885D01*
X122206000Y-106405482D01*
X122206000Y-107433674D01*
X114654642Y-107433674D01*
X114649569Y-107410354D01*
X114549567Y-107142239D01*
X114543393Y-107130933D01*
X114470145Y-106996789D01*
X114412426Y-106891085D01*
X114240939Y-106662005D01*
X114038595Y-106459661D01*
X113809515Y-106288174D01*
X113805620Y-106286047D01*
X113562250Y-106153156D01*
X113562243Y-106153153D01*
X113558361Y-106151033D01*
X113554217Y-106149487D01*
X113554212Y-106149485D01*
X113294389Y-106052576D01*
X113294385Y-106052575D01*
X113290246Y-106051031D01*
X113260275Y-106044511D01*
X113014961Y-105991146D01*
X113014953Y-105991144D01*
X113010628Y-105990204D01*
X113006214Y-105989888D01*
X113006205Y-105989887D01*
X112729618Y-105970106D01*
X112725200Y-105969790D01*
X112720782Y-105970106D01*
X112444194Y-105989887D01*
X112444183Y-105989888D01*
X112439772Y-105990204D01*
X112435448Y-105991144D01*
X112435438Y-105991146D01*
X112164479Y-106050090D01*
X112164476Y-106050090D01*
X112160154Y-106051031D01*
X112156018Y-106052573D01*
X112156010Y-106052576D01*
X111946955Y-106130550D01*
X111880734Y-106136237D01*
X111821088Y-106106912D01*
X111785155Y-106050998D01*
X111783257Y-105984561D01*
X111815939Y-105926688D01*
X112573808Y-105168819D01*
X112614037Y-105141939D01*
X112661490Y-105132500D01*
X129375110Y-105132500D01*
X129422563Y-105141939D01*
X129462791Y-105168819D01*
X130195258Y-105901286D01*
X130227941Y-105959160D01*
X130226043Y-106025597D01*
X130190110Y-106081511D01*
X130130464Y-106110836D01*
X130064244Y-106105149D01*
X129855194Y-106027177D01*
X129855179Y-106027172D01*
X129851046Y-106025631D01*
X129821075Y-106019111D01*
X129575761Y-105965746D01*
X129575753Y-105965744D01*
X129571428Y-105964804D01*
X129567014Y-105964488D01*
X129567005Y-105964487D01*
X129290418Y-105944706D01*
X129286000Y-105944390D01*
X129281582Y-105944706D01*
X129004994Y-105964487D01*
X129004983Y-105964488D01*
X129000572Y-105964804D01*
X128996248Y-105965744D01*
X128996238Y-105965746D01*
X128725279Y-106024690D01*
X128725276Y-106024690D01*
X128720954Y-106025631D01*
X128716818Y-106027173D01*
X128716810Y-106027176D01*
X128456987Y-106124085D01*
X128456976Y-106124089D01*
X128452839Y-106125633D01*
X128448961Y-106127750D01*
X128448949Y-106127756D01*
X128205579Y-106260647D01*
X128205571Y-106260651D01*
X128201685Y-106262774D01*
X128198135Y-106265431D01*
X128198131Y-106265434D01*
X127976156Y-106431602D01*
X127976149Y-106431607D01*
X127972605Y-106434261D01*
X127969474Y-106437391D01*
X127969467Y-106437398D01*
X127773398Y-106633467D01*
X127773391Y-106633474D01*
X127770261Y-106636605D01*
X127767607Y-106640149D01*
X127767602Y-106640156D01*
X127623037Y-106833273D01*
X127598774Y-106865685D01*
X127596651Y-106869571D01*
X127596647Y-106869579D01*
X127463756Y-107112949D01*
X127463750Y-107112961D01*
X127461633Y-107116839D01*
X127460089Y-107120976D01*
X127460085Y-107120987D01*
X127363176Y-107380810D01*
X127363173Y-107380818D01*
X127361631Y-107384954D01*
X127360690Y-107389276D01*
X127360690Y-107389279D01*
X127301746Y-107660238D01*
X127301744Y-107660248D01*
X127300804Y-107664572D01*
X127300488Y-107668983D01*
X127300487Y-107668994D01*
X127285325Y-107880998D01*
X127280390Y-107950000D01*
X127280706Y-107954418D01*
X127300487Y-108231005D01*
X127300488Y-108231014D01*
X127300804Y-108235428D01*
X127301744Y-108239753D01*
X127301746Y-108239761D01*
X127347481Y-108450000D01*
X127361631Y-108515046D01*
X127363175Y-108519185D01*
X127363176Y-108519189D01*
X127371104Y-108540446D01*
X127461633Y-108783161D01*
X127463753Y-108787043D01*
X127463756Y-108787050D01*
X127596647Y-109030420D01*
X127598774Y-109034315D01*
X127770261Y-109263395D01*
X127972605Y-109465739D01*
X128201685Y-109637226D01*
X128452839Y-109774367D01*
X128720954Y-109874369D01*
X129000572Y-109935196D01*
X129286000Y-109955610D01*
X129571428Y-109935196D01*
X129851046Y-109874369D01*
X130119161Y-109774367D01*
X130370315Y-109637226D01*
X130599395Y-109465739D01*
X130801739Y-109263395D01*
X130973226Y-109034315D01*
X131110367Y-108783161D01*
X131210369Y-108515046D01*
X131271196Y-108235428D01*
X131291610Y-107950000D01*
X131271196Y-107664572D01*
X131210369Y-107384954D01*
X131130849Y-107171755D01*
X131125162Y-107105535D01*
X131154488Y-107045889D01*
X131210402Y-107009956D01*
X131276839Y-107008058D01*
X131334713Y-107040741D01*
X132336653Y-108042681D01*
X132361766Y-108078850D01*
X132372656Y-108121515D01*
X132380487Y-108231005D01*
X132380488Y-108231013D01*
X132380804Y-108235428D01*
X132381744Y-108239753D01*
X132381746Y-108239761D01*
X132427481Y-108450000D01*
X132441631Y-108515046D01*
X132443175Y-108519185D01*
X132443176Y-108519189D01*
X132451104Y-108540446D01*
X132541633Y-108783161D01*
X132543753Y-108787043D01*
X132543756Y-108787050D01*
X132676647Y-109030420D01*
X132678774Y-109034315D01*
X132850261Y-109263395D01*
X133052605Y-109465739D01*
X133281685Y-109637226D01*
X133532839Y-109774367D01*
X133800954Y-109874369D01*
X134080572Y-109935196D01*
X134366000Y-109955610D01*
X134651428Y-109935196D01*
X134931046Y-109874369D01*
X135199161Y-109774367D01*
X135450315Y-109637226D01*
X135679395Y-109465739D01*
X135881739Y-109263395D01*
X136053226Y-109034315D01*
X136190367Y-108783161D01*
X136290369Y-108515046D01*
X136351196Y-108235428D01*
X136359342Y-108121513D01*
X136370231Y-108078851D01*
X136395342Y-108042684D01*
X136488026Y-107950000D01*
X137440390Y-107950000D01*
X137440706Y-107954418D01*
X137460487Y-108231005D01*
X137460488Y-108231014D01*
X137460804Y-108235428D01*
X137461744Y-108239753D01*
X137461746Y-108239761D01*
X137507481Y-108450000D01*
X137521631Y-108515046D01*
X137523175Y-108519185D01*
X137523176Y-108519189D01*
X137531104Y-108540446D01*
X137621633Y-108783161D01*
X137623753Y-108787043D01*
X137623756Y-108787050D01*
X137756647Y-109030420D01*
X137758774Y-109034315D01*
X137930261Y-109263395D01*
X138132605Y-109465739D01*
X138361685Y-109637226D01*
X138612839Y-109774367D01*
X138880954Y-109874369D01*
X139160572Y-109935196D01*
X139446000Y-109955610D01*
X139731428Y-109935196D01*
X140011046Y-109874369D01*
X140279161Y-109774367D01*
X140530315Y-109637226D01*
X140759395Y-109465739D01*
X140961739Y-109263395D01*
X141133226Y-109034315D01*
X141270367Y-108783161D01*
X141370369Y-108515046D01*
X141431196Y-108235428D01*
X141451610Y-107950000D01*
X141431196Y-107664572D01*
X141370369Y-107384954D01*
X141270367Y-107116839D01*
X141133226Y-106865685D01*
X140961739Y-106636605D01*
X140759395Y-106434261D01*
X140530315Y-106262774D01*
X140526420Y-106260647D01*
X140283050Y-106127756D01*
X140283043Y-106127753D01*
X140279161Y-106125633D01*
X140275017Y-106124087D01*
X140275012Y-106124085D01*
X140015189Y-106027176D01*
X140015185Y-106027175D01*
X140011046Y-106025631D01*
X139981075Y-106019111D01*
X139735761Y-105965746D01*
X139735753Y-105965744D01*
X139731428Y-105964804D01*
X139727014Y-105964488D01*
X139727005Y-105964487D01*
X139450418Y-105944706D01*
X139446000Y-105944390D01*
X139441582Y-105944706D01*
X139164994Y-105964487D01*
X139164983Y-105964488D01*
X139160572Y-105964804D01*
X139156248Y-105965744D01*
X139156238Y-105965746D01*
X138885279Y-106024690D01*
X138885276Y-106024690D01*
X138880954Y-106025631D01*
X138876818Y-106027173D01*
X138876810Y-106027176D01*
X138616987Y-106124085D01*
X138616976Y-106124089D01*
X138612839Y-106125633D01*
X138608961Y-106127750D01*
X138608949Y-106127756D01*
X138365579Y-106260647D01*
X138365571Y-106260651D01*
X138361685Y-106262774D01*
X138358135Y-106265431D01*
X138358131Y-106265434D01*
X138136156Y-106431602D01*
X138136149Y-106431607D01*
X138132605Y-106434261D01*
X138129474Y-106437391D01*
X138129467Y-106437398D01*
X137933398Y-106633467D01*
X137933391Y-106633474D01*
X137930261Y-106636605D01*
X137927607Y-106640149D01*
X137927602Y-106640156D01*
X137783037Y-106833273D01*
X137758774Y-106865685D01*
X137756652Y-106869569D01*
X137756650Y-106869574D01*
X137725001Y-106927535D01*
X137682946Y-106972591D01*
X137667291Y-106977735D01*
X137671380Y-106992750D01*
X137656220Y-107053497D01*
X137623754Y-107112953D01*
X137623749Y-107112963D01*
X137621633Y-107116839D01*
X137620089Y-107120976D01*
X137620085Y-107120987D01*
X137523176Y-107380810D01*
X137523173Y-107380818D01*
X137521631Y-107384954D01*
X137520690Y-107389276D01*
X137520690Y-107389279D01*
X137461746Y-107660238D01*
X137461744Y-107660248D01*
X137460804Y-107664572D01*
X137460488Y-107668983D01*
X137460487Y-107668994D01*
X137445325Y-107880998D01*
X137440390Y-107950000D01*
X136488026Y-107950000D01*
X137133701Y-107304325D01*
X137145203Y-107294167D01*
X137163744Y-107279738D01*
X137225211Y-107212964D01*
X137228761Y-107209266D01*
X137248902Y-107189126D01*
X137267315Y-107167383D01*
X137270700Y-107163551D01*
X137286501Y-107146387D01*
X137332164Y-107096785D01*
X137345013Y-107077115D01*
X137354181Y-107064820D01*
X137369366Y-107046894D01*
X137415861Y-106968862D01*
X137418497Y-106964640D01*
X137443582Y-106926244D01*
X137489948Y-106884177D01*
X137493319Y-106883400D01*
X137500650Y-106823035D01*
X137529663Y-106748679D01*
X137531600Y-106744005D01*
X137568063Y-106660881D01*
X137573824Y-106638126D01*
X137578516Y-106623482D01*
X137585184Y-106606395D01*
X137587050Y-106601614D01*
X137605678Y-106512772D01*
X137606831Y-106507791D01*
X137627848Y-106424798D01*
X137627848Y-106424793D01*
X137629108Y-106419821D01*
X137631046Y-106396426D01*
X137633263Y-106381215D01*
X137637028Y-106363258D01*
X137638081Y-106358237D01*
X137641831Y-106267540D01*
X137642149Y-106262429D01*
X137642297Y-106260647D01*
X137644500Y-106234067D01*
X137644500Y-106205596D01*
X137644606Y-106200472D01*
X137648145Y-106114901D01*
X137648357Y-106109779D01*
X137647723Y-106104692D01*
X137645452Y-106086472D01*
X137644500Y-106071135D01*
X137644500Y-102208865D01*
X137645452Y-102193528D01*
X137647723Y-102175307D01*
X137647722Y-102175307D01*
X137648357Y-102170221D01*
X137644605Y-102079527D01*
X137644500Y-102074404D01*
X137644500Y-102048502D01*
X137644500Y-102045933D01*
X137642148Y-102017557D01*
X137641831Y-102012450D01*
X137641345Y-102000689D01*
X137638081Y-101921763D01*
X137637028Y-101916745D01*
X137637028Y-101916738D01*
X137633263Y-101898783D01*
X137631046Y-101883571D01*
X137629531Y-101865289D01*
X137629108Y-101860179D01*
X137606827Y-101772193D01*
X137605675Y-101767213D01*
X137599429Y-101737426D01*
X137587050Y-101678386D01*
X137578509Y-101656501D01*
X137573826Y-101641882D01*
X137568063Y-101619119D01*
X137559677Y-101600000D01*
X143810726Y-101600000D01*
X143810908Y-101603357D01*
X143829626Y-101948597D01*
X143829627Y-101948612D01*
X143829809Y-101951957D01*
X143830351Y-101955267D01*
X143830352Y-101955270D01*
X143886288Y-102296474D01*
X143886290Y-102296486D01*
X143886832Y-102299788D01*
X143887728Y-102303017D01*
X143887731Y-102303028D01*
X143950448Y-102528911D01*
X143981129Y-102639414D01*
X143982371Y-102642531D01*
X143982374Y-102642540D01*
X144083577Y-102896540D01*
X144111593Y-102966854D01*
X144276695Y-103278269D01*
X144474499Y-103570008D01*
X144476672Y-103572566D01*
X144692421Y-103826566D01*
X144702686Y-103838650D01*
X144705117Y-103840953D01*
X144705123Y-103840959D01*
X144839747Y-103968481D01*
X144958580Y-104081046D01*
X145239182Y-104294354D01*
X145541202Y-104476074D01*
X145861099Y-104624074D01*
X146151783Y-104722016D01*
X146179890Y-104731487D01*
X146195122Y-104736619D01*
X146539355Y-104812391D01*
X146889763Y-104850500D01*
X147238879Y-104850500D01*
X147242237Y-104850500D01*
X147592645Y-104812391D01*
X147936878Y-104736619D01*
X148270901Y-104624074D01*
X148590798Y-104476074D01*
X148892818Y-104294354D01*
X149173420Y-104081046D01*
X149429314Y-103838650D01*
X149657501Y-103570008D01*
X149855305Y-103278269D01*
X150020407Y-102966854D01*
X150150871Y-102639414D01*
X150245168Y-102299788D01*
X150302191Y-101951957D01*
X150321274Y-101600000D01*
X150302191Y-101248043D01*
X150245168Y-100900212D01*
X150150871Y-100560586D01*
X150020407Y-100233146D01*
X149855305Y-99921731D01*
X149657501Y-99629992D01*
X149429314Y-99361350D01*
X149426881Y-99359045D01*
X149426876Y-99359040D01*
X149216378Y-99159646D01*
X149173420Y-99118954D01*
X148892818Y-98905646D01*
X148889944Y-98903917D01*
X148889940Y-98903914D01*
X148593680Y-98725660D01*
X148593679Y-98725659D01*
X148590798Y-98723926D01*
X148576651Y-98717381D01*
X148273955Y-98577339D01*
X148273956Y-98577339D01*
X148270901Y-98575926D01*
X148212403Y-98556216D01*
X147940053Y-98464450D01*
X147940039Y-98464446D01*
X147936878Y-98463381D01*
X147933611Y-98462662D01*
X147933608Y-98462661D01*
X147595926Y-98388331D01*
X147595922Y-98388330D01*
X147592645Y-98387609D01*
X147589309Y-98387246D01*
X147589302Y-98387245D01*
X147245575Y-98349863D01*
X147245574Y-98349862D01*
X147242237Y-98349500D01*
X146889763Y-98349500D01*
X146886426Y-98349862D01*
X146886424Y-98349863D01*
X146542697Y-98387245D01*
X146542687Y-98387246D01*
X146539355Y-98387609D01*
X146536080Y-98388329D01*
X146536073Y-98388331D01*
X146198391Y-98462661D01*
X146198383Y-98462663D01*
X146195122Y-98463381D01*
X146191964Y-98464444D01*
X146191946Y-98464450D01*
X145864286Y-98574852D01*
X145864283Y-98574853D01*
X145861099Y-98575926D01*
X145858050Y-98577336D01*
X145858044Y-98577339D01*
X145544257Y-98722512D01*
X145544247Y-98722516D01*
X145541202Y-98723926D01*
X145538328Y-98725655D01*
X145538319Y-98725660D01*
X145242059Y-98903914D01*
X145242046Y-98903922D01*
X145239182Y-98905646D01*
X145236524Y-98907666D01*
X145236513Y-98907674D01*
X144961239Y-99116932D01*
X144961231Y-99116938D01*
X144958580Y-99118954D01*
X144956156Y-99121249D01*
X144956149Y-99121256D01*
X144705123Y-99359040D01*
X144705108Y-99359055D01*
X144702686Y-99361350D01*
X144700523Y-99363895D01*
X144700512Y-99363908D01*
X144476672Y-99627433D01*
X144476666Y-99627440D01*
X144474499Y-99629992D01*
X144472619Y-99632764D01*
X144472612Y-99632774D01*
X144278585Y-99918942D01*
X144278577Y-99918954D01*
X144276695Y-99921731D01*
X144275120Y-99924701D01*
X144275118Y-99924705D01*
X144113168Y-100230174D01*
X144113163Y-100230183D01*
X144111593Y-100233146D01*
X144110352Y-100236258D01*
X144110348Y-100236269D01*
X143982374Y-100557459D01*
X143982369Y-100557473D01*
X143981129Y-100560586D01*
X143980229Y-100563824D01*
X143980229Y-100563827D01*
X143887731Y-100896971D01*
X143887727Y-100896985D01*
X143886832Y-100900212D01*
X143886291Y-100903509D01*
X143886288Y-100903525D01*
X143831536Y-101237509D01*
X143829809Y-101248043D01*
X143829627Y-101251385D01*
X143829626Y-101251402D01*
X143814196Y-101535998D01*
X143810726Y-101600000D01*
X137559677Y-101600000D01*
X137558204Y-101596643D01*
X137531603Y-101535998D01*
X137529642Y-101531263D01*
X137498520Y-101451505D01*
X137496656Y-101446727D01*
X137484636Y-101426555D01*
X137477605Y-101412895D01*
X137470233Y-101396088D01*
X137470230Y-101396082D01*
X137468173Y-101391393D01*
X137465370Y-101387104D01*
X137465366Y-101387095D01*
X137418530Y-101315408D01*
X137415827Y-101311078D01*
X137369366Y-101233106D01*
X137366056Y-101229198D01*
X137366049Y-101229188D01*
X137354190Y-101215187D01*
X137345001Y-101202864D01*
X137334972Y-101187513D01*
X137334971Y-101187512D01*
X137332164Y-101183215D01*
X137270694Y-101116441D01*
X137267302Y-101112600D01*
X137248902Y-101090875D01*
X137228781Y-101070754D01*
X137225233Y-101067057D01*
X137167215Y-101004032D01*
X137167211Y-101004029D01*
X137163744Y-101000262D01*
X137145204Y-100985831D01*
X137133692Y-100975665D01*
X133456740Y-97298712D01*
X133424057Y-97240838D01*
X133425955Y-97174401D01*
X133461889Y-97118487D01*
X133521534Y-97089161D01*
X133587752Y-97094848D01*
X133800954Y-97174369D01*
X134080572Y-97235196D01*
X134366000Y-97255610D01*
X134651428Y-97235196D01*
X134931046Y-97174369D01*
X135199161Y-97074367D01*
X135450315Y-96937226D01*
X135640951Y-96794518D01*
X137446000Y-96794518D01*
X137446353Y-96801114D01*
X137451573Y-96849667D01*
X137455111Y-96864641D01*
X137499547Y-96983777D01*
X137507962Y-96999189D01*
X137583498Y-97100092D01*
X137595907Y-97112501D01*
X137696810Y-97188037D01*
X137712222Y-97196452D01*
X137831358Y-97240888D01*
X137846332Y-97244426D01*
X137894885Y-97249646D01*
X137901482Y-97250000D01*
X138929674Y-97250000D01*
X138942549Y-97246549D01*
X138946000Y-97233674D01*
X139946000Y-97233674D01*
X139949450Y-97246549D01*
X139962326Y-97250000D01*
X140990518Y-97250000D01*
X140997114Y-97249646D01*
X141045667Y-97244426D01*
X141060641Y-97240888D01*
X141179777Y-97196452D01*
X141195189Y-97188037D01*
X141296092Y-97112501D01*
X141308501Y-97100092D01*
X141384037Y-96999189D01*
X141392452Y-96983777D01*
X141436888Y-96864641D01*
X141440426Y-96849667D01*
X141445646Y-96801114D01*
X141446000Y-96794518D01*
X141446000Y-95766326D01*
X141442549Y-95753450D01*
X141429674Y-95750000D01*
X139962326Y-95750000D01*
X139949450Y-95753450D01*
X139946000Y-95766326D01*
X139946000Y-97233674D01*
X138946000Y-97233674D01*
X138946000Y-95766326D01*
X138942549Y-95753450D01*
X138929674Y-95750000D01*
X137462326Y-95750000D01*
X137449450Y-95753450D01*
X137446000Y-95766326D01*
X137446000Y-96794518D01*
X135640951Y-96794518D01*
X135679395Y-96765739D01*
X135881739Y-96563395D01*
X136053226Y-96334315D01*
X136190367Y-96083161D01*
X136290369Y-95815046D01*
X136351196Y-95535428D01*
X136371610Y-95250000D01*
X136351196Y-94964572D01*
X136300967Y-94733674D01*
X137446000Y-94733674D01*
X137449450Y-94746549D01*
X137462326Y-94750000D01*
X138929674Y-94750000D01*
X138942549Y-94746549D01*
X138946000Y-94733674D01*
X139946000Y-94733674D01*
X139949450Y-94746549D01*
X139962326Y-94750000D01*
X141429674Y-94750000D01*
X141442549Y-94746549D01*
X141446000Y-94733674D01*
X141446000Y-93705482D01*
X141445646Y-93698885D01*
X141440426Y-93650332D01*
X141436888Y-93635358D01*
X141392452Y-93516222D01*
X141384037Y-93500810D01*
X141308501Y-93399907D01*
X141296092Y-93387498D01*
X141195189Y-93311962D01*
X141179777Y-93303547D01*
X141060641Y-93259111D01*
X141045667Y-93255573D01*
X140997114Y-93250353D01*
X140990518Y-93250000D01*
X139962326Y-93250000D01*
X139949450Y-93253450D01*
X139946000Y-93266326D01*
X139946000Y-94733674D01*
X138946000Y-94733674D01*
X138946000Y-93266326D01*
X138942549Y-93253450D01*
X138929674Y-93250000D01*
X137901482Y-93250000D01*
X137894885Y-93250353D01*
X137846332Y-93255573D01*
X137831358Y-93259111D01*
X137712222Y-93303547D01*
X137696810Y-93311962D01*
X137595907Y-93387498D01*
X137583498Y-93399907D01*
X137507962Y-93500810D01*
X137499547Y-93516222D01*
X137455111Y-93635358D01*
X137451573Y-93650332D01*
X137446353Y-93698885D01*
X137446000Y-93705482D01*
X137446000Y-94733674D01*
X136300967Y-94733674D01*
X136290369Y-94684954D01*
X136190367Y-94416839D01*
X136053226Y-94165685D01*
X135881739Y-93936605D01*
X135679395Y-93734261D01*
X135450315Y-93562774D01*
X135336837Y-93500810D01*
X135203050Y-93427756D01*
X135203043Y-93427753D01*
X135199161Y-93425633D01*
X135195017Y-93424087D01*
X135195012Y-93424085D01*
X134935189Y-93327176D01*
X134935185Y-93327175D01*
X134931046Y-93325631D01*
X134901075Y-93319111D01*
X134655761Y-93265746D01*
X134655753Y-93265744D01*
X134651428Y-93264804D01*
X134647014Y-93264488D01*
X134647005Y-93264487D01*
X134370418Y-93244706D01*
X134366000Y-93244390D01*
X134361582Y-93244706D01*
X134084994Y-93264487D01*
X134084983Y-93264488D01*
X134080572Y-93264804D01*
X134076248Y-93265744D01*
X134076238Y-93265746D01*
X133805279Y-93324690D01*
X133805276Y-93324690D01*
X133800954Y-93325631D01*
X133796818Y-93327173D01*
X133796810Y-93327176D01*
X133536987Y-93424085D01*
X133536976Y-93424089D01*
X133532839Y-93425633D01*
X133528961Y-93427750D01*
X133528949Y-93427756D01*
X133285579Y-93560647D01*
X133285571Y-93560651D01*
X133281685Y-93562774D01*
X133278135Y-93565431D01*
X133278131Y-93565434D01*
X133056156Y-93731602D01*
X133056149Y-93731607D01*
X133052605Y-93734261D01*
X133049474Y-93737391D01*
X133049467Y-93737398D01*
X132853398Y-93933467D01*
X132853391Y-93933474D01*
X132850261Y-93936605D01*
X132847607Y-93940149D01*
X132847602Y-93940156D01*
X132681434Y-94162131D01*
X132678774Y-94165685D01*
X132676651Y-94169571D01*
X132676647Y-94169579D01*
X132543756Y-94412949D01*
X132543750Y-94412961D01*
X132541633Y-94416839D01*
X132540089Y-94420976D01*
X132540085Y-94420987D01*
X132443176Y-94680810D01*
X132443173Y-94680818D01*
X132441631Y-94684954D01*
X132440690Y-94689276D01*
X132440690Y-94689279D01*
X132381746Y-94960238D01*
X132381744Y-94960248D01*
X132380804Y-94964572D01*
X132380488Y-94968983D01*
X132380487Y-94968994D01*
X132367019Y-95157317D01*
X132360390Y-95250000D01*
X132360706Y-95254418D01*
X132380487Y-95531005D01*
X132380488Y-95531014D01*
X132380804Y-95535428D01*
X132381744Y-95539753D01*
X132381746Y-95539761D01*
X132393685Y-95594641D01*
X132441631Y-95815046D01*
X132443175Y-95819185D01*
X132443176Y-95819189D01*
X132521150Y-96028244D01*
X132526838Y-96094465D01*
X132497512Y-96154111D01*
X132441598Y-96190044D01*
X132375161Y-96191942D01*
X132317287Y-96159259D01*
X131315345Y-95157317D01*
X131290231Y-95121147D01*
X131279343Y-95078483D01*
X131271196Y-94964572D01*
X131210369Y-94684954D01*
X131110367Y-94416839D01*
X130973226Y-94165685D01*
X130801739Y-93936605D01*
X130599395Y-93734261D01*
X130370315Y-93562774D01*
X130256837Y-93500810D01*
X130123050Y-93427756D01*
X130123043Y-93427753D01*
X130119161Y-93425633D01*
X130115017Y-93424087D01*
X130115012Y-93424085D01*
X129855189Y-93327176D01*
X129855185Y-93327175D01*
X129851046Y-93325631D01*
X129821075Y-93319111D01*
X129575761Y-93265746D01*
X129575753Y-93265744D01*
X129571428Y-93264804D01*
X129567014Y-93264488D01*
X129567005Y-93264487D01*
X129290418Y-93244706D01*
X129286000Y-93244390D01*
X129281582Y-93244706D01*
X129004994Y-93264487D01*
X129004983Y-93264488D01*
X129000572Y-93264804D01*
X128996248Y-93265744D01*
X128996238Y-93265746D01*
X128725279Y-93324690D01*
X128725276Y-93324690D01*
X128720954Y-93325631D01*
X128716818Y-93327173D01*
X128716810Y-93327176D01*
X128456987Y-93424085D01*
X128456976Y-93424089D01*
X128452839Y-93425633D01*
X128448961Y-93427750D01*
X128448949Y-93427756D01*
X128205579Y-93560647D01*
X128205571Y-93560651D01*
X128201685Y-93562774D01*
X128198135Y-93565431D01*
X128198131Y-93565434D01*
X127976156Y-93731602D01*
X127976149Y-93731607D01*
X127972605Y-93734261D01*
X127969474Y-93737391D01*
X127969467Y-93737398D01*
X127773398Y-93933467D01*
X127773391Y-93933474D01*
X127770261Y-93936605D01*
X127767607Y-93940149D01*
X127767602Y-93940156D01*
X127601434Y-94162131D01*
X127598774Y-94165685D01*
X127596651Y-94169571D01*
X127596647Y-94169579D01*
X127463756Y-94412949D01*
X127463750Y-94412961D01*
X127461633Y-94416839D01*
X127460089Y-94420976D01*
X127460085Y-94420987D01*
X127363176Y-94680810D01*
X127363173Y-94680818D01*
X127361631Y-94684954D01*
X127360690Y-94689276D01*
X127360690Y-94689279D01*
X127301746Y-94960238D01*
X127301744Y-94960248D01*
X127300804Y-94964572D01*
X127300488Y-94968984D01*
X127300487Y-94968994D01*
X127292656Y-95078483D01*
X127281766Y-95121148D01*
X127256653Y-95157317D01*
X126254713Y-96159257D01*
X126196839Y-96191940D01*
X126130402Y-96190042D01*
X126074488Y-96154108D01*
X126045162Y-96094463D01*
X126050849Y-96028244D01*
X126130369Y-95815046D01*
X126191196Y-95535428D01*
X126211610Y-95250000D01*
X126191196Y-94964572D01*
X126130369Y-94684954D01*
X126030367Y-94416839D01*
X125893226Y-94165685D01*
X125721739Y-93936605D01*
X125519395Y-93734261D01*
X125290315Y-93562774D01*
X125176837Y-93500810D01*
X125043050Y-93427756D01*
X125043043Y-93427753D01*
X125039161Y-93425633D01*
X125035017Y-93424087D01*
X125035012Y-93424085D01*
X124775189Y-93327176D01*
X124775185Y-93327175D01*
X124771046Y-93325631D01*
X124741075Y-93319111D01*
X124495761Y-93265746D01*
X124495753Y-93265744D01*
X124491428Y-93264804D01*
X124487014Y-93264488D01*
X124487005Y-93264487D01*
X124210418Y-93244706D01*
X124206000Y-93244390D01*
X124201582Y-93244706D01*
X123924994Y-93264487D01*
X123924983Y-93264488D01*
X123920572Y-93264804D01*
X123916248Y-93265744D01*
X123916238Y-93265746D01*
X123645279Y-93324690D01*
X123645276Y-93324690D01*
X123640954Y-93325631D01*
X123636818Y-93327173D01*
X123636810Y-93327176D01*
X123376987Y-93424085D01*
X123376976Y-93424089D01*
X123372839Y-93425633D01*
X123368961Y-93427750D01*
X123368949Y-93427756D01*
X123125579Y-93560647D01*
X123125571Y-93560651D01*
X123121685Y-93562774D01*
X123118135Y-93565431D01*
X123118131Y-93565434D01*
X122896156Y-93731602D01*
X122896149Y-93731607D01*
X122892605Y-93734261D01*
X122889474Y-93737391D01*
X122889467Y-93737398D01*
X122693398Y-93933467D01*
X122693391Y-93933474D01*
X122690261Y-93936605D01*
X122687607Y-93940149D01*
X122687602Y-93940156D01*
X122521434Y-94162131D01*
X122518774Y-94165685D01*
X122516651Y-94169571D01*
X122516647Y-94169579D01*
X122383756Y-94412949D01*
X122383750Y-94412961D01*
X122381633Y-94416839D01*
X122380089Y-94420976D01*
X122380085Y-94420987D01*
X122283176Y-94680810D01*
X122283173Y-94680818D01*
X122281631Y-94684954D01*
X122280690Y-94689276D01*
X122280690Y-94689279D01*
X122221746Y-94960238D01*
X122221744Y-94960248D01*
X122220804Y-94964572D01*
X122220488Y-94968983D01*
X122220487Y-94968994D01*
X122207019Y-95157317D01*
X122200390Y-95250000D01*
X122200706Y-95254418D01*
X122220487Y-95531005D01*
X122220488Y-95531014D01*
X122220804Y-95535428D01*
X122221744Y-95539753D01*
X122221746Y-95539761D01*
X122233685Y-95594641D01*
X122281631Y-95815046D01*
X122283175Y-95819185D01*
X122283176Y-95819189D01*
X122343155Y-95980000D01*
X122381633Y-96083161D01*
X122383753Y-96087043D01*
X122383756Y-96087050D01*
X122441032Y-96191942D01*
X122518774Y-96334315D01*
X122690261Y-96563395D01*
X122892605Y-96765739D01*
X123121685Y-96937226D01*
X123372839Y-97074367D01*
X123640954Y-97174369D01*
X123920572Y-97235196D01*
X124206000Y-97255610D01*
X124491428Y-97235196D01*
X124771046Y-97174369D01*
X124984244Y-97094849D01*
X125050464Y-97089162D01*
X125110109Y-97118488D01*
X125146043Y-97174402D01*
X125147941Y-97240839D01*
X125115258Y-97298713D01*
X124636791Y-97777181D01*
X124596563Y-97804061D01*
X124549110Y-97813500D01*
X107352890Y-97813500D01*
X107305437Y-97804061D01*
X107265209Y-97777181D01*
X106786741Y-97298713D01*
X106754058Y-97240839D01*
X106755956Y-97174402D01*
X106791889Y-97118488D01*
X106851535Y-97089162D01*
X106917755Y-97094849D01*
X107130954Y-97174369D01*
X107410572Y-97235196D01*
X107696000Y-97255610D01*
X107981428Y-97235196D01*
X108261046Y-97174369D01*
X108529161Y-97074367D01*
X108780315Y-96937226D01*
X108970951Y-96794518D01*
X110776000Y-96794518D01*
X110776353Y-96801114D01*
X110781573Y-96849667D01*
X110785111Y-96864641D01*
X110829547Y-96983777D01*
X110837962Y-96999189D01*
X110913498Y-97100092D01*
X110925907Y-97112501D01*
X111026810Y-97188037D01*
X111042222Y-97196452D01*
X111161358Y-97240888D01*
X111176332Y-97244426D01*
X111224885Y-97249646D01*
X111231482Y-97250000D01*
X112259674Y-97250000D01*
X112272549Y-97246549D01*
X112276000Y-97233674D01*
X113276000Y-97233674D01*
X113279450Y-97246549D01*
X113292326Y-97250000D01*
X114320518Y-97250000D01*
X114327114Y-97249646D01*
X114375667Y-97244426D01*
X114390641Y-97240888D01*
X114509777Y-97196452D01*
X114525189Y-97188037D01*
X114626092Y-97112501D01*
X114638501Y-97100092D01*
X114714037Y-96999189D01*
X114722452Y-96983777D01*
X114766888Y-96864641D01*
X114770426Y-96849667D01*
X114775646Y-96801114D01*
X114776000Y-96794518D01*
X114776000Y-95766326D01*
X114772549Y-95753450D01*
X114759674Y-95750000D01*
X113292326Y-95750000D01*
X113279450Y-95753450D01*
X113276000Y-95766326D01*
X113276000Y-97233674D01*
X112276000Y-97233674D01*
X112276000Y-95766326D01*
X112272549Y-95753450D01*
X112259674Y-95750000D01*
X110792326Y-95750000D01*
X110779450Y-95753450D01*
X110776000Y-95766326D01*
X110776000Y-96794518D01*
X108970951Y-96794518D01*
X109009395Y-96765739D01*
X109211739Y-96563395D01*
X109383226Y-96334315D01*
X109520367Y-96083161D01*
X109620369Y-95815046D01*
X109681196Y-95535428D01*
X109701610Y-95250000D01*
X109681196Y-94964572D01*
X109630967Y-94733674D01*
X110776000Y-94733674D01*
X110779450Y-94746549D01*
X110792326Y-94750000D01*
X112259674Y-94750000D01*
X112272549Y-94746549D01*
X112276000Y-94733674D01*
X113276000Y-94733674D01*
X113279450Y-94746549D01*
X113292326Y-94750000D01*
X114759674Y-94750000D01*
X114772549Y-94746549D01*
X114776000Y-94733674D01*
X114776000Y-93705482D01*
X114775646Y-93698885D01*
X114770426Y-93650332D01*
X114766888Y-93635358D01*
X114722452Y-93516222D01*
X114714037Y-93500810D01*
X114638501Y-93399907D01*
X114626092Y-93387498D01*
X114525189Y-93311962D01*
X114509777Y-93303547D01*
X114390641Y-93259111D01*
X114375667Y-93255573D01*
X114327114Y-93250353D01*
X114320518Y-93250000D01*
X113292326Y-93250000D01*
X113279450Y-93253450D01*
X113276000Y-93266326D01*
X113276000Y-94733674D01*
X112276000Y-94733674D01*
X112276000Y-93266326D01*
X112272549Y-93253450D01*
X112259674Y-93250000D01*
X111231482Y-93250000D01*
X111224885Y-93250353D01*
X111176332Y-93255573D01*
X111161358Y-93259111D01*
X111042222Y-93303547D01*
X111026810Y-93311962D01*
X110925907Y-93387498D01*
X110913498Y-93399907D01*
X110837962Y-93500810D01*
X110829547Y-93516222D01*
X110785111Y-93635358D01*
X110781573Y-93650332D01*
X110776353Y-93698885D01*
X110776000Y-93705482D01*
X110776000Y-94733674D01*
X109630967Y-94733674D01*
X109620369Y-94684954D01*
X109520367Y-94416839D01*
X109383226Y-94165685D01*
X109211739Y-93936605D01*
X109009395Y-93734261D01*
X108780315Y-93562774D01*
X108666837Y-93500810D01*
X108533050Y-93427756D01*
X108533043Y-93427753D01*
X108529161Y-93425633D01*
X108525017Y-93424087D01*
X108525012Y-93424085D01*
X108265189Y-93327176D01*
X108265185Y-93327175D01*
X108261046Y-93325631D01*
X108231075Y-93319111D01*
X107985761Y-93265746D01*
X107985753Y-93265744D01*
X107981428Y-93264804D01*
X107977014Y-93264488D01*
X107977005Y-93264487D01*
X107700418Y-93244706D01*
X107696000Y-93244390D01*
X107691582Y-93244706D01*
X107414994Y-93264487D01*
X107414983Y-93264488D01*
X107410572Y-93264804D01*
X107406248Y-93265744D01*
X107406238Y-93265746D01*
X107135279Y-93324690D01*
X107135276Y-93324690D01*
X107130954Y-93325631D01*
X107126818Y-93327173D01*
X107126810Y-93327176D01*
X106866987Y-93424085D01*
X106866976Y-93424089D01*
X106862839Y-93425633D01*
X106858961Y-93427750D01*
X106858949Y-93427756D01*
X106615579Y-93560647D01*
X106615571Y-93560651D01*
X106611685Y-93562774D01*
X106608135Y-93565431D01*
X106608131Y-93565434D01*
X106386156Y-93731602D01*
X106386149Y-93731607D01*
X106382605Y-93734261D01*
X106379474Y-93737391D01*
X106379467Y-93737398D01*
X106183398Y-93933467D01*
X106183391Y-93933474D01*
X106180261Y-93936605D01*
X106177607Y-93940149D01*
X106177602Y-93940156D01*
X106011434Y-94162131D01*
X106008774Y-94165685D01*
X106006651Y-94169571D01*
X106006647Y-94169579D01*
X105873756Y-94412949D01*
X105873750Y-94412961D01*
X105871633Y-94416839D01*
X105870089Y-94420976D01*
X105870085Y-94420987D01*
X105773176Y-94680810D01*
X105773173Y-94680818D01*
X105771631Y-94684954D01*
X105770690Y-94689276D01*
X105770690Y-94689279D01*
X105711746Y-94960238D01*
X105711744Y-94960248D01*
X105710804Y-94964572D01*
X105710488Y-94968983D01*
X105710487Y-94968994D01*
X105697019Y-95157317D01*
X105690390Y-95250000D01*
X105690706Y-95254418D01*
X105710487Y-95531005D01*
X105710488Y-95531014D01*
X105710804Y-95535428D01*
X105711744Y-95539753D01*
X105711746Y-95539761D01*
X105723685Y-95594641D01*
X105771631Y-95815046D01*
X105773172Y-95819179D01*
X105773177Y-95819194D01*
X105851149Y-96028244D01*
X105856836Y-96094464D01*
X105827511Y-96154110D01*
X105771597Y-96190043D01*
X105705160Y-96191941D01*
X105647286Y-96159258D01*
X104645345Y-95157317D01*
X104620231Y-95121147D01*
X104609343Y-95078483D01*
X104601196Y-94964572D01*
X104540369Y-94684954D01*
X104440367Y-94416839D01*
X104303226Y-94165685D01*
X104131739Y-93936605D01*
X103929395Y-93734261D01*
X103700315Y-93562774D01*
X103586837Y-93500810D01*
X103453050Y-93427756D01*
X103453043Y-93427753D01*
X103449161Y-93425633D01*
X103445017Y-93424087D01*
X103445012Y-93424085D01*
X103185189Y-93327176D01*
X103185185Y-93327175D01*
X103181046Y-93325631D01*
X103151075Y-93319111D01*
X102905761Y-93265746D01*
X102905753Y-93265744D01*
X102901428Y-93264804D01*
X102897014Y-93264488D01*
X102897005Y-93264487D01*
X102620418Y-93244706D01*
X102616000Y-93244390D01*
X102611582Y-93244706D01*
X102334994Y-93264487D01*
X102334983Y-93264488D01*
X102330572Y-93264804D01*
X102326248Y-93265744D01*
X102326238Y-93265746D01*
X102055279Y-93324690D01*
X102055276Y-93324690D01*
X102050954Y-93325631D01*
X102046818Y-93327173D01*
X102046810Y-93327176D01*
X101786987Y-93424085D01*
X101786976Y-93424089D01*
X101782839Y-93425633D01*
X101778961Y-93427750D01*
X101778949Y-93427756D01*
X101535579Y-93560647D01*
X101535571Y-93560651D01*
X101531685Y-93562774D01*
X101528135Y-93565431D01*
X101528131Y-93565434D01*
X101306156Y-93731602D01*
X101306149Y-93731607D01*
X101302605Y-93734261D01*
X101299474Y-93737391D01*
X101299467Y-93737398D01*
X101103398Y-93933467D01*
X101103391Y-93933474D01*
X101100261Y-93936605D01*
X101097607Y-93940149D01*
X101097602Y-93940156D01*
X100931434Y-94162131D01*
X100928774Y-94165685D01*
X100926651Y-94169571D01*
X100926647Y-94169579D01*
X100793756Y-94412949D01*
X100793750Y-94412961D01*
X100791633Y-94416839D01*
X100790089Y-94420976D01*
X100790085Y-94420987D01*
X100693176Y-94680810D01*
X100693173Y-94680818D01*
X100691631Y-94684954D01*
X100690690Y-94689276D01*
X100690690Y-94689279D01*
X100631746Y-94960238D01*
X100631744Y-94960248D01*
X100630804Y-94964572D01*
X100630488Y-94968983D01*
X100630487Y-94968994D01*
X100617019Y-95157317D01*
X100610390Y-95250000D01*
X100610706Y-95254418D01*
X100630487Y-95531005D01*
X100630488Y-95531014D01*
X100630804Y-95535428D01*
X100631744Y-95539753D01*
X100631746Y-95539761D01*
X100643685Y-95594641D01*
X100691631Y-95815046D01*
X100693175Y-95819185D01*
X100693176Y-95819189D01*
X100753155Y-95980000D01*
X100791633Y-96083161D01*
X100793753Y-96087043D01*
X100793756Y-96087050D01*
X100851032Y-96191942D01*
X100928774Y-96334315D01*
X101100261Y-96563395D01*
X101302605Y-96765739D01*
X101531685Y-96937226D01*
X101782839Y-97074367D01*
X102050954Y-97174369D01*
X102330572Y-97235196D01*
X102444484Y-97243342D01*
X102487147Y-97254231D01*
X102523317Y-97279345D01*
X105547665Y-100303693D01*
X105557837Y-100315211D01*
X105569115Y-100329702D01*
X105569121Y-100329708D01*
X105572262Y-100333744D01*
X105576027Y-100337210D01*
X105576029Y-100337212D01*
X105639045Y-100395222D01*
X105642733Y-100398761D01*
X105662874Y-100418902D01*
X105664828Y-100420557D01*
X105664839Y-100420567D01*
X105684598Y-100437301D01*
X105688441Y-100440694D01*
X105755215Y-100502164D01*
X105759512Y-100504971D01*
X105759513Y-100504972D01*
X105774864Y-100515001D01*
X105787187Y-100524190D01*
X105801188Y-100536049D01*
X105801194Y-100536053D01*
X105805106Y-100539366D01*
X105883078Y-100585827D01*
X105887408Y-100588530D01*
X105959095Y-100635366D01*
X105959104Y-100635370D01*
X105963393Y-100638173D01*
X105968082Y-100640230D01*
X105968088Y-100640233D01*
X105984895Y-100647605D01*
X105998555Y-100654636D01*
X106018727Y-100666656D01*
X106103273Y-100699645D01*
X106108005Y-100701605D01*
X106186422Y-100736003D01*
X106186425Y-100736004D01*
X106191119Y-100738063D01*
X106213890Y-100743829D01*
X106228514Y-100748514D01*
X106230661Y-100749352D01*
X106245603Y-100755183D01*
X106245606Y-100755184D01*
X106250386Y-100757049D01*
X106255408Y-100758102D01*
X106339193Y-100775670D01*
X106344186Y-100776824D01*
X106432179Y-100799108D01*
X106455573Y-100801046D01*
X106470783Y-100803263D01*
X106488738Y-100807028D01*
X106488746Y-100807029D01*
X106493763Y-100808081D01*
X106584458Y-100811831D01*
X106589557Y-100812148D01*
X106617933Y-100814500D01*
X106646404Y-100814500D01*
X106651527Y-100814605D01*
X106742221Y-100818357D01*
X106750395Y-100817338D01*
X106765528Y-100815452D01*
X106780865Y-100814500D01*
X125121135Y-100814500D01*
X125136472Y-100815452D01*
X125154692Y-100817723D01*
X125154693Y-100817723D01*
X125159779Y-100818357D01*
X125250472Y-100814605D01*
X125255596Y-100814500D01*
X125281498Y-100814500D01*
X125284067Y-100814500D01*
X125312441Y-100812148D01*
X125317540Y-100811831D01*
X125408237Y-100808081D01*
X125431230Y-100803259D01*
X125446417Y-100801046D01*
X125469821Y-100799108D01*
X125557848Y-100776815D01*
X125562754Y-100775680D01*
X125651614Y-100757049D01*
X125673486Y-100748513D01*
X125688111Y-100743828D01*
X125710881Y-100738063D01*
X125794008Y-100701599D01*
X125798699Y-100699656D01*
X125883274Y-100666656D01*
X125903450Y-100654632D01*
X125917101Y-100647605D01*
X125938607Y-100638173D01*
X125942903Y-100635366D01*
X125942909Y-100635363D01*
X126014587Y-100588533D01*
X126018916Y-100585830D01*
X126096894Y-100539366D01*
X126114820Y-100524181D01*
X126127115Y-100515013D01*
X126146785Y-100502164D01*
X126213561Y-100440691D01*
X126217383Y-100437315D01*
X126239126Y-100418902D01*
X126259268Y-100398759D01*
X126262967Y-100395210D01*
X126290523Y-100369843D01*
X126329738Y-100333744D01*
X126344167Y-100315203D01*
X126354325Y-100303701D01*
X129198319Y-97459708D01*
X129253906Y-97427614D01*
X129318094Y-97427614D01*
X129373681Y-97459708D01*
X134607181Y-102693208D01*
X134634061Y-102733436D01*
X134643500Y-102780889D01*
X134643500Y-105499110D01*
X134634061Y-105546563D01*
X134607181Y-105586791D01*
X134453681Y-105740291D01*
X134398094Y-105772385D01*
X134333906Y-105772385D01*
X134278319Y-105740291D01*
X131180334Y-102642306D01*
X131170161Y-102630787D01*
X131158888Y-102616303D01*
X131158887Y-102616302D01*
X131155738Y-102612256D01*
X131088952Y-102550775D01*
X131085255Y-102547227D01*
X131066939Y-102528911D01*
X131065126Y-102527098D01*
X131043387Y-102508686D01*
X131039546Y-102505294D01*
X130976554Y-102447305D01*
X130976549Y-102447301D01*
X130972785Y-102443836D01*
X130968499Y-102441035D01*
X130968489Y-102441028D01*
X130953123Y-102430989D01*
X130940804Y-102421803D01*
X130926806Y-102409947D01*
X130926803Y-102409945D01*
X130922894Y-102406634D01*
X130844926Y-102360174D01*
X130840583Y-102357464D01*
X130768904Y-102310634D01*
X130768901Y-102310632D01*
X130764607Y-102307827D01*
X130759910Y-102305766D01*
X130759907Y-102305765D01*
X130743109Y-102298397D01*
X130729446Y-102291363D01*
X130713685Y-102281971D01*
X130713672Y-102281964D01*
X130709274Y-102279344D01*
X130704502Y-102277481D01*
X130704496Y-102277479D01*
X130647479Y-102255231D01*
X130624711Y-102246347D01*
X130620004Y-102244397D01*
X130536881Y-102207937D01*
X130531918Y-102206680D01*
X130531915Y-102206679D01*
X130514113Y-102202171D01*
X130499488Y-102197486D01*
X130477614Y-102188951D01*
X130472609Y-102187901D01*
X130472604Y-102187900D01*
X130388793Y-102170326D01*
X130383803Y-102169171D01*
X130300790Y-102148150D01*
X130300786Y-102148149D01*
X130295821Y-102146892D01*
X130290720Y-102146469D01*
X130290713Y-102146468D01*
X130272418Y-102144952D01*
X130257221Y-102142738D01*
X130234237Y-102137919D01*
X130229116Y-102137707D01*
X130229107Y-102137706D01*
X130143559Y-102134168D01*
X130138447Y-102133851D01*
X130112609Y-102131710D01*
X130112594Y-102131709D01*
X130110067Y-102131500D01*
X130107514Y-102131500D01*
X130081596Y-102131500D01*
X130076472Y-102131394D01*
X129990901Y-102127854D01*
X129990890Y-102127854D01*
X129985779Y-102127643D01*
X129980705Y-102128275D01*
X129980692Y-102128276D01*
X129962472Y-102130548D01*
X129947135Y-102131500D01*
X112089464Y-102131500D01*
X112074126Y-102130548D01*
X112055906Y-102128276D01*
X112055895Y-102128275D01*
X112050821Y-102127643D01*
X112045708Y-102127854D01*
X112045698Y-102127854D01*
X111960137Y-102131394D01*
X111955012Y-102131500D01*
X111926533Y-102131500D01*
X111924006Y-102131709D01*
X111923989Y-102131710D01*
X111898138Y-102133852D01*
X111893028Y-102134169D01*
X111807491Y-102137707D01*
X111807480Y-102137708D01*
X111802363Y-102137920D01*
X111797343Y-102138972D01*
X111797339Y-102138973D01*
X111779384Y-102142738D01*
X111764178Y-102144953D01*
X111745888Y-102146468D01*
X111745880Y-102146469D01*
X111740779Y-102146892D01*
X111735817Y-102148148D01*
X111735808Y-102148150D01*
X111652791Y-102169172D01*
X111647802Y-102170326D01*
X111564011Y-102187896D01*
X111563996Y-102187900D01*
X111558986Y-102188951D01*
X111547256Y-102193528D01*
X111537114Y-102197485D01*
X111522491Y-102202169D01*
X111504691Y-102206677D01*
X111504682Y-102206680D01*
X111499719Y-102207937D01*
X111495024Y-102209996D01*
X111495022Y-102209997D01*
X111416621Y-102244386D01*
X111411888Y-102246347D01*
X111327326Y-102279344D01*
X111322932Y-102281962D01*
X111322918Y-102281969D01*
X111307144Y-102291368D01*
X111293493Y-102298395D01*
X111276688Y-102305767D01*
X111276683Y-102305769D01*
X111271993Y-102307827D01*
X111267714Y-102310622D01*
X111267702Y-102310629D01*
X111196018Y-102357462D01*
X111191676Y-102360172D01*
X111113706Y-102406634D01*
X111109796Y-102409945D01*
X111109791Y-102409949D01*
X111095783Y-102421813D01*
X111083470Y-102430994D01*
X111063815Y-102443836D01*
X111060046Y-102447304D01*
X111060035Y-102447314D01*
X110997046Y-102505299D01*
X110993211Y-102508686D01*
X110973440Y-102525432D01*
X110973428Y-102525442D01*
X110971474Y-102527098D01*
X110969659Y-102528911D01*
X110969661Y-102528911D01*
X110951338Y-102547233D01*
X110947645Y-102550775D01*
X110884639Y-102608777D01*
X110884627Y-102608789D01*
X110880862Y-102612256D01*
X110877717Y-102616295D01*
X110877709Y-102616305D01*
X110866431Y-102630794D01*
X110856263Y-102642307D01*
X107732880Y-105765690D01*
X107677293Y-105797784D01*
X107613105Y-105797784D01*
X107557518Y-105765690D01*
X103926134Y-102134306D01*
X103915961Y-102122787D01*
X103904688Y-102108303D01*
X103904687Y-102108302D01*
X103901538Y-102104256D01*
X103834740Y-102042764D01*
X103831055Y-102039227D01*
X103812739Y-102020911D01*
X103812738Y-102020910D01*
X103810926Y-102019098D01*
X103789188Y-102000687D01*
X103785346Y-101997294D01*
X103722354Y-101939305D01*
X103722349Y-101939301D01*
X103718585Y-101935836D01*
X103714299Y-101933035D01*
X103714289Y-101933028D01*
X103698923Y-101922989D01*
X103686604Y-101913803D01*
X103672606Y-101901947D01*
X103672603Y-101901945D01*
X103668694Y-101898634D01*
X103590726Y-101852174D01*
X103586383Y-101849464D01*
X103514704Y-101802634D01*
X103514701Y-101802632D01*
X103510407Y-101799827D01*
X103505710Y-101797766D01*
X103505707Y-101797765D01*
X103488909Y-101790397D01*
X103475246Y-101783363D01*
X103459485Y-101773971D01*
X103459472Y-101773964D01*
X103455074Y-101771344D01*
X103450302Y-101769481D01*
X103450296Y-101769479D01*
X103393279Y-101747231D01*
X103370517Y-101738349D01*
X103365804Y-101736397D01*
X103282681Y-101699937D01*
X103277718Y-101698680D01*
X103277715Y-101698679D01*
X103259913Y-101694171D01*
X103245288Y-101689486D01*
X103223414Y-101680951D01*
X103218409Y-101679901D01*
X103218404Y-101679900D01*
X103134593Y-101662326D01*
X103129603Y-101661171D01*
X103046590Y-101640150D01*
X103046586Y-101640149D01*
X103041621Y-101638892D01*
X103036520Y-101638469D01*
X103036513Y-101638468D01*
X103018218Y-101636952D01*
X103003021Y-101634738D01*
X102980037Y-101629919D01*
X102974916Y-101629707D01*
X102974907Y-101629706D01*
X102889359Y-101626168D01*
X102884247Y-101625851D01*
X102858409Y-101623710D01*
X102858394Y-101623709D01*
X102855867Y-101623500D01*
X102853314Y-101623500D01*
X102827396Y-101623500D01*
X102822272Y-101623394D01*
X102736701Y-101619854D01*
X102736690Y-101619854D01*
X102731579Y-101619643D01*
X102726505Y-101620275D01*
X102726492Y-101620276D01*
X102708272Y-101622548D01*
X102692935Y-101623500D01*
X97037464Y-101623500D01*
X97022126Y-101622548D01*
X97003906Y-101620276D01*
X97003895Y-101620275D01*
X96998821Y-101619643D01*
X96993708Y-101619854D01*
X96993698Y-101619854D01*
X96908137Y-101623394D01*
X96903012Y-101623500D01*
X96874533Y-101623500D01*
X96872006Y-101623709D01*
X96871989Y-101623710D01*
X96846138Y-101625852D01*
X96841028Y-101626169D01*
X96755491Y-101629707D01*
X96755480Y-101629708D01*
X96750363Y-101629920D01*
X96745343Y-101630972D01*
X96745339Y-101630973D01*
X96727384Y-101634738D01*
X96712178Y-101636953D01*
X96693888Y-101638468D01*
X96693880Y-101638469D01*
X96688779Y-101638892D01*
X96683817Y-101640148D01*
X96683808Y-101640150D01*
X96600791Y-101661172D01*
X96595802Y-101662326D01*
X96512011Y-101679896D01*
X96511996Y-101679900D01*
X96506986Y-101680951D01*
X96502212Y-101682813D01*
X96502214Y-101682813D01*
X96485114Y-101689485D01*
X96470491Y-101694169D01*
X96452691Y-101698677D01*
X96452682Y-101698680D01*
X96447719Y-101699937D01*
X96443024Y-101701996D01*
X96443022Y-101701997D01*
X96364608Y-101736392D01*
X96359875Y-101738353D01*
X96280098Y-101769482D01*
X96280088Y-101769486D01*
X96275326Y-101771345D01*
X96270935Y-101773960D01*
X96270923Y-101773967D01*
X96255149Y-101783366D01*
X96241499Y-101790392D01*
X96224685Y-101797768D01*
X96224678Y-101797771D01*
X96219993Y-101799827D01*
X96215708Y-101802626D01*
X96215707Y-101802627D01*
X96144007Y-101849470D01*
X96139662Y-101852182D01*
X96066109Y-101896010D01*
X96066105Y-101896012D01*
X96061706Y-101898634D01*
X96057796Y-101901945D01*
X96057791Y-101901949D01*
X96043783Y-101913813D01*
X96031470Y-101922994D01*
X96011815Y-101935836D01*
X95945054Y-101997294D01*
X95945047Y-101997300D01*
X95941209Y-102000689D01*
X95921431Y-102017440D01*
X95921411Y-102017458D01*
X95919474Y-102019099D01*
X95917668Y-102020903D01*
X95917670Y-102020903D01*
X95899350Y-102039222D01*
X95895657Y-102042764D01*
X95832642Y-102100774D01*
X95832628Y-102100788D01*
X95828862Y-102104256D01*
X95825717Y-102108295D01*
X95825710Y-102108304D01*
X95814433Y-102122793D01*
X95804264Y-102134307D01*
X92795391Y-105143181D01*
X92755163Y-105170061D01*
X92707710Y-105179500D01*
X91236666Y-105179500D01*
X91170450Y-105160340D01*
X91124697Y-105108782D01*
X91113545Y-105040759D01*
X91140441Y-104977290D01*
X91197073Y-104937991D01*
X91198785Y-104937413D01*
X91374901Y-104878074D01*
X91694798Y-104730074D01*
X91996818Y-104548354D01*
X92277420Y-104335046D01*
X92533314Y-104092650D01*
X92761501Y-103824008D01*
X92959305Y-103532269D01*
X93124407Y-103220854D01*
X93254871Y-102893414D01*
X93349168Y-102553788D01*
X93406191Y-102205957D01*
X93425274Y-101854000D01*
X93406191Y-101502043D01*
X93349168Y-101154212D01*
X93254871Y-100814586D01*
X93124407Y-100487146D01*
X92959305Y-100175731D01*
X92761501Y-99883992D01*
X92545069Y-99629189D01*
X92535487Y-99617908D01*
X92535484Y-99617905D01*
X92533314Y-99615350D01*
X92530881Y-99613045D01*
X92530876Y-99613040D01*
X92279850Y-99375256D01*
X92277420Y-99372954D01*
X91996818Y-99159646D01*
X91993944Y-99157917D01*
X91993940Y-99157914D01*
X91697680Y-98979660D01*
X91697679Y-98979659D01*
X91694798Y-98977926D01*
X91374901Y-98829926D01*
X91210616Y-98774572D01*
X91044053Y-98718450D01*
X91044039Y-98718446D01*
X91040878Y-98717381D01*
X91037611Y-98716662D01*
X91037608Y-98716661D01*
X90699926Y-98642331D01*
X90699922Y-98642330D01*
X90696645Y-98641609D01*
X90693309Y-98641246D01*
X90693302Y-98641245D01*
X90349575Y-98603863D01*
X90349574Y-98603862D01*
X90346237Y-98603500D01*
X89993763Y-98603500D01*
X89990426Y-98603862D01*
X89990424Y-98603863D01*
X89646697Y-98641245D01*
X89646687Y-98641246D01*
X89643355Y-98641609D01*
X89640080Y-98642329D01*
X89640073Y-98642331D01*
X89302391Y-98716661D01*
X89302383Y-98716663D01*
X89299122Y-98717381D01*
X89295964Y-98718444D01*
X89295946Y-98718450D01*
X88968286Y-98828852D01*
X88968283Y-98828853D01*
X88965099Y-98829926D01*
X88962050Y-98831336D01*
X88962044Y-98831339D01*
X88648257Y-98976512D01*
X88648247Y-98976516D01*
X88645202Y-98977926D01*
X88642328Y-98979655D01*
X88642319Y-98979660D01*
X88346059Y-99157914D01*
X88346046Y-99157922D01*
X88343182Y-99159646D01*
X88340524Y-99161666D01*
X88340513Y-99161674D01*
X88065239Y-99370932D01*
X88065231Y-99370938D01*
X88062580Y-99372954D01*
X88060156Y-99375249D01*
X88060149Y-99375256D01*
X87809123Y-99613040D01*
X87809108Y-99613055D01*
X87806686Y-99615350D01*
X87804523Y-99617895D01*
X87804512Y-99617908D01*
X87580672Y-99881433D01*
X87580666Y-99881440D01*
X87578499Y-99883992D01*
X87576619Y-99886764D01*
X87576612Y-99886774D01*
X87382585Y-100172942D01*
X87382577Y-100172954D01*
X87380695Y-100175731D01*
X87379120Y-100178701D01*
X87379118Y-100178705D01*
X87217168Y-100484174D01*
X87217163Y-100484183D01*
X87215593Y-100487146D01*
X87214352Y-100490258D01*
X87214348Y-100490269D01*
X87086374Y-100811459D01*
X87086369Y-100811473D01*
X87085129Y-100814586D01*
X87084229Y-100817824D01*
X87084229Y-100817827D01*
X86991731Y-101150971D01*
X86991727Y-101150985D01*
X86990832Y-101154212D01*
X86990291Y-101157509D01*
X86990288Y-101157525D01*
X86942877Y-101446727D01*
X86933809Y-101502043D01*
X86933627Y-101505385D01*
X86933626Y-101505402D01*
X86917775Y-101797765D01*
X86914726Y-101854000D01*
X86914908Y-101857357D01*
X86933626Y-102202597D01*
X86933627Y-102202612D01*
X86933809Y-102205957D01*
X86934351Y-102209267D01*
X86934352Y-102209270D01*
X86990288Y-102550474D01*
X86990290Y-102550486D01*
X86990832Y-102553788D01*
X86991728Y-102557017D01*
X86991731Y-102557028D01*
X87014606Y-102639414D01*
X87085129Y-102893414D01*
X87086371Y-102896531D01*
X87086374Y-102896540D01*
X87151335Y-103059579D01*
X87215593Y-103220854D01*
X87217167Y-103223823D01*
X87217168Y-103223825D01*
X87247511Y-103281057D01*
X87380695Y-103532269D01*
X87382582Y-103535052D01*
X87382585Y-103535057D01*
X87576612Y-103821225D01*
X87578499Y-103824008D01*
X87608217Y-103858995D01*
X87768179Y-104047317D01*
X87806686Y-104092650D01*
X87809117Y-104094953D01*
X87809123Y-104094959D01*
X87985614Y-104262139D01*
X88062580Y-104335046D01*
X88343182Y-104548354D01*
X88645202Y-104730074D01*
X88965099Y-104878074D01*
X89140520Y-104937180D01*
X89142927Y-104937991D01*
X89199559Y-104977290D01*
X89226455Y-105040759D01*
X89215303Y-105108782D01*
X89169550Y-105160340D01*
X89103334Y-105179500D01*
X84492889Y-105179500D01*
X84445436Y-105170061D01*
X84405208Y-105143181D01*
X83309345Y-104047317D01*
X83284231Y-104011147D01*
X83273342Y-103968484D01*
X83265196Y-103854572D01*
X83204369Y-103574954D01*
X83104367Y-103306839D01*
X82967226Y-103055685D01*
X82795739Y-102826605D01*
X82593395Y-102624261D01*
X82364315Y-102452774D01*
X82354316Y-102447314D01*
X82117050Y-102317756D01*
X82117043Y-102317753D01*
X82113161Y-102315633D01*
X82109017Y-102314087D01*
X82109012Y-102314085D01*
X81849189Y-102217176D01*
X81849185Y-102217175D01*
X81845046Y-102215631D01*
X81800575Y-102205957D01*
X81569761Y-102155746D01*
X81569753Y-102155744D01*
X81565428Y-102154804D01*
X81561014Y-102154488D01*
X81561005Y-102154487D01*
X81284418Y-102134706D01*
X81280000Y-102134390D01*
X81275582Y-102134706D01*
X80998994Y-102154487D01*
X80998983Y-102154488D01*
X80994572Y-102154804D01*
X80990248Y-102155744D01*
X80990238Y-102155746D01*
X80719279Y-102214690D01*
X80719276Y-102214690D01*
X80714954Y-102215631D01*
X80710818Y-102217173D01*
X80710810Y-102217176D01*
X80450987Y-102314085D01*
X80450976Y-102314089D01*
X80446839Y-102315633D01*
X80442961Y-102317750D01*
X80442949Y-102317756D01*
X80199579Y-102450647D01*
X80199571Y-102450651D01*
X80195685Y-102452774D01*
X80192135Y-102455431D01*
X80192131Y-102455434D01*
X79970156Y-102621602D01*
X79970149Y-102621607D01*
X79966605Y-102624261D01*
X79963474Y-102627391D01*
X79963467Y-102627398D01*
X79767398Y-102823467D01*
X79767391Y-102823474D01*
X79764261Y-102826605D01*
X79761607Y-102830149D01*
X79761602Y-102830156D01*
X79595434Y-103052131D01*
X79592774Y-103055685D01*
X79590651Y-103059571D01*
X79590647Y-103059579D01*
X79457756Y-103302949D01*
X79457750Y-103302961D01*
X79455633Y-103306839D01*
X79454089Y-103310976D01*
X79454085Y-103310987D01*
X79357176Y-103570810D01*
X79357173Y-103570818D01*
X79355631Y-103574954D01*
X79354690Y-103579276D01*
X79354690Y-103579279D01*
X79295746Y-103850238D01*
X79295744Y-103850248D01*
X79294804Y-103854572D01*
X79294488Y-103858983D01*
X79294487Y-103858994D01*
X79277611Y-104094959D01*
X79274390Y-104140000D01*
X79274706Y-104144418D01*
X79294487Y-104421005D01*
X79294488Y-104421014D01*
X79294804Y-104425428D01*
X79295744Y-104429753D01*
X79295746Y-104429761D01*
X79321103Y-104546325D01*
X79355631Y-104705046D01*
X79357175Y-104709185D01*
X79357176Y-104709189D01*
X79419639Y-104876660D01*
X79455633Y-104973161D01*
X79457753Y-104977043D01*
X79457756Y-104977050D01*
X79529688Y-105108782D01*
X79592774Y-105224315D01*
X79764261Y-105453395D01*
X79966605Y-105655739D01*
X80195685Y-105827226D01*
X80243568Y-105853372D01*
X80442293Y-105961885D01*
X80446839Y-105964367D01*
X80714954Y-106064369D01*
X80994572Y-106125196D01*
X81108484Y-106133342D01*
X81151147Y-106144231D01*
X81187317Y-106169345D01*
X81914443Y-106896471D01*
X82189260Y-107171287D01*
X82221943Y-107229161D01*
X82220045Y-107295598D01*
X82184112Y-107351512D01*
X82124466Y-107380837D01*
X82058245Y-107375150D01*
X81849189Y-107297176D01*
X81849185Y-107297175D01*
X81845046Y-107295631D01*
X81815075Y-107289111D01*
X81569761Y-107235746D01*
X81569753Y-107235744D01*
X81565428Y-107234804D01*
X81561014Y-107234488D01*
X81561005Y-107234487D01*
X81284418Y-107214706D01*
X81280000Y-107214390D01*
X81275582Y-107214706D01*
X80998994Y-107234487D01*
X80998983Y-107234488D01*
X80994572Y-107234804D01*
X80990248Y-107235744D01*
X80990238Y-107235746D01*
X80719279Y-107294690D01*
X80719276Y-107294690D01*
X80714954Y-107295631D01*
X80710818Y-107297173D01*
X80710810Y-107297176D01*
X80450987Y-107394085D01*
X80450976Y-107394089D01*
X80446839Y-107395633D01*
X80442961Y-107397750D01*
X80442949Y-107397756D01*
X80199579Y-107530647D01*
X80199571Y-107530651D01*
X80195685Y-107532774D01*
X80192135Y-107535431D01*
X80192131Y-107535434D01*
X79970156Y-107701602D01*
X79970149Y-107701607D01*
X79966605Y-107704261D01*
X79963474Y-107707391D01*
X79963467Y-107707398D01*
X79767398Y-107903467D01*
X79767391Y-107903474D01*
X79764261Y-107906605D01*
X79761607Y-107910149D01*
X79761602Y-107910156D01*
X79595434Y-108132131D01*
X79592774Y-108135685D01*
X79590651Y-108139571D01*
X79590647Y-108139579D01*
X79457756Y-108382949D01*
X79457750Y-108382961D01*
X79455633Y-108386839D01*
X79454089Y-108390976D01*
X79454085Y-108390987D01*
X79357176Y-108650810D01*
X79357173Y-108650818D01*
X79355631Y-108654954D01*
X79354690Y-108659276D01*
X79354690Y-108659279D01*
X79295746Y-108930238D01*
X79295744Y-108930248D01*
X79294804Y-108934572D01*
X79294488Y-108938983D01*
X79294487Y-108938994D01*
X79275272Y-109207654D01*
X79274390Y-109220000D01*
X76708000Y-109220000D01*
X76708000Y-99060000D01*
X79274390Y-99060000D01*
X79274706Y-99064418D01*
X79294487Y-99341005D01*
X79294488Y-99341014D01*
X79294804Y-99345428D01*
X79295744Y-99349753D01*
X79295746Y-99349761D01*
X79349111Y-99595075D01*
X79355631Y-99625046D01*
X79357175Y-99629185D01*
X79357176Y-99629189D01*
X79453250Y-99886774D01*
X79455633Y-99893161D01*
X79457753Y-99897043D01*
X79457756Y-99897050D01*
X79471233Y-99921731D01*
X79592774Y-100144315D01*
X79764261Y-100373395D01*
X79966605Y-100575739D01*
X80195685Y-100747226D01*
X80446839Y-100884367D01*
X80714954Y-100984369D01*
X80994572Y-101045196D01*
X81280000Y-101065610D01*
X81565428Y-101045196D01*
X81845046Y-100984369D01*
X82113161Y-100884367D01*
X82364315Y-100747226D01*
X82593395Y-100575739D01*
X82795739Y-100373395D01*
X82967226Y-100144315D01*
X83104367Y-99893161D01*
X83204369Y-99625046D01*
X83265196Y-99345428D01*
X83285610Y-99060000D01*
X83265196Y-98774572D01*
X83204369Y-98494954D01*
X83104367Y-98226839D01*
X82967226Y-97975685D01*
X82795739Y-97746605D01*
X82593395Y-97544261D01*
X82364315Y-97372774D01*
X82360420Y-97370647D01*
X82117050Y-97237756D01*
X82117043Y-97237753D01*
X82113161Y-97235633D01*
X82109017Y-97234087D01*
X82109012Y-97234085D01*
X81849189Y-97137176D01*
X81849185Y-97137175D01*
X81845046Y-97135631D01*
X81766241Y-97118488D01*
X81569761Y-97075746D01*
X81569753Y-97075744D01*
X81565428Y-97074804D01*
X81561014Y-97074488D01*
X81561005Y-97074487D01*
X81284418Y-97054706D01*
X81280000Y-97054390D01*
X81275582Y-97054706D01*
X80998994Y-97074487D01*
X80998983Y-97074488D01*
X80994572Y-97074804D01*
X80990248Y-97075744D01*
X80990238Y-97075746D01*
X80719279Y-97134690D01*
X80719276Y-97134690D01*
X80714954Y-97135631D01*
X80710818Y-97137173D01*
X80710810Y-97137176D01*
X80450987Y-97234085D01*
X80450976Y-97234089D01*
X80446839Y-97235633D01*
X80442961Y-97237750D01*
X80442949Y-97237756D01*
X80199579Y-97370647D01*
X80199571Y-97370651D01*
X80195685Y-97372774D01*
X80192135Y-97375431D01*
X80192131Y-97375434D01*
X79970156Y-97541602D01*
X79970149Y-97541607D01*
X79966605Y-97544261D01*
X79963474Y-97547391D01*
X79963467Y-97547398D01*
X79767398Y-97743467D01*
X79767391Y-97743474D01*
X79764261Y-97746605D01*
X79761607Y-97750149D01*
X79761602Y-97750156D01*
X79595434Y-97972131D01*
X79592774Y-97975685D01*
X79590651Y-97979571D01*
X79590647Y-97979579D01*
X79457756Y-98222949D01*
X79457750Y-98222961D01*
X79455633Y-98226839D01*
X79454089Y-98230976D01*
X79454085Y-98230987D01*
X79357176Y-98490810D01*
X79357173Y-98490818D01*
X79355631Y-98494954D01*
X79354690Y-98499276D01*
X79354690Y-98499279D01*
X79295746Y-98770238D01*
X79295744Y-98770248D01*
X79294804Y-98774572D01*
X79294488Y-98778983D01*
X79294487Y-98778994D01*
X79285284Y-98907674D01*
X79274390Y-99060000D01*
X76708000Y-99060000D01*
X76708000Y-95524518D01*
X79280000Y-95524518D01*
X79280353Y-95531114D01*
X79285573Y-95579667D01*
X79289111Y-95594641D01*
X79333547Y-95713777D01*
X79341962Y-95729189D01*
X79417498Y-95830092D01*
X79429907Y-95842501D01*
X79530810Y-95918037D01*
X79546222Y-95926452D01*
X79665358Y-95970888D01*
X79680332Y-95974426D01*
X79728885Y-95979646D01*
X79735482Y-95980000D01*
X80763674Y-95980000D01*
X80776549Y-95976549D01*
X80780000Y-95963674D01*
X81780000Y-95963674D01*
X81783450Y-95976549D01*
X81796326Y-95980000D01*
X82824518Y-95980000D01*
X82831114Y-95979646D01*
X82879667Y-95974426D01*
X82894641Y-95970888D01*
X83013777Y-95926452D01*
X83029189Y-95918037D01*
X83130092Y-95842501D01*
X83142501Y-95830092D01*
X83218037Y-95729189D01*
X83226452Y-95713777D01*
X83270888Y-95594641D01*
X83274426Y-95579667D01*
X83279646Y-95531114D01*
X83280000Y-95524518D01*
X83280000Y-95250000D01*
X95530390Y-95250000D01*
X95530706Y-95254418D01*
X95550487Y-95531005D01*
X95550488Y-95531014D01*
X95550804Y-95535428D01*
X95551744Y-95539753D01*
X95551746Y-95539761D01*
X95563685Y-95594641D01*
X95611631Y-95815046D01*
X95613175Y-95819185D01*
X95613176Y-95819189D01*
X95673155Y-95980000D01*
X95711633Y-96083161D01*
X95713753Y-96087043D01*
X95713756Y-96087050D01*
X95771032Y-96191942D01*
X95848774Y-96334315D01*
X96020261Y-96563395D01*
X96222605Y-96765739D01*
X96451685Y-96937226D01*
X96702839Y-97074367D01*
X96970954Y-97174369D01*
X97250572Y-97235196D01*
X97536000Y-97255610D01*
X97821428Y-97235196D01*
X98101046Y-97174369D01*
X98369161Y-97074367D01*
X98620315Y-96937226D01*
X98849395Y-96765739D01*
X99051739Y-96563395D01*
X99223226Y-96334315D01*
X99360367Y-96083161D01*
X99460369Y-95815046D01*
X99521196Y-95535428D01*
X99541610Y-95250000D01*
X99521196Y-94964572D01*
X99460369Y-94684954D01*
X99360367Y-94416839D01*
X99223226Y-94165685D01*
X99051739Y-93936605D01*
X98849395Y-93734261D01*
X98620315Y-93562774D01*
X98506837Y-93500810D01*
X98373050Y-93427756D01*
X98373043Y-93427753D01*
X98369161Y-93425633D01*
X98365017Y-93424087D01*
X98365012Y-93424085D01*
X98105189Y-93327176D01*
X98105185Y-93327175D01*
X98101046Y-93325631D01*
X98071075Y-93319111D01*
X97825761Y-93265746D01*
X97825753Y-93265744D01*
X97821428Y-93264804D01*
X97817014Y-93264488D01*
X97817005Y-93264487D01*
X97540418Y-93244706D01*
X97536000Y-93244390D01*
X97531582Y-93244706D01*
X97254994Y-93264487D01*
X97254983Y-93264488D01*
X97250572Y-93264804D01*
X97246248Y-93265744D01*
X97246238Y-93265746D01*
X96975279Y-93324690D01*
X96975276Y-93324690D01*
X96970954Y-93325631D01*
X96966818Y-93327173D01*
X96966810Y-93327176D01*
X96706987Y-93424085D01*
X96706976Y-93424089D01*
X96702839Y-93425633D01*
X96698961Y-93427750D01*
X96698949Y-93427756D01*
X96455579Y-93560647D01*
X96455571Y-93560651D01*
X96451685Y-93562774D01*
X96448135Y-93565431D01*
X96448131Y-93565434D01*
X96226156Y-93731602D01*
X96226149Y-93731607D01*
X96222605Y-93734261D01*
X96219474Y-93737391D01*
X96219467Y-93737398D01*
X96023398Y-93933467D01*
X96023391Y-93933474D01*
X96020261Y-93936605D01*
X96017607Y-93940149D01*
X96017602Y-93940156D01*
X95851434Y-94162131D01*
X95848774Y-94165685D01*
X95846651Y-94169571D01*
X95846647Y-94169579D01*
X95713756Y-94412949D01*
X95713750Y-94412961D01*
X95711633Y-94416839D01*
X95710089Y-94420976D01*
X95710085Y-94420987D01*
X95613176Y-94680810D01*
X95613173Y-94680818D01*
X95611631Y-94684954D01*
X95610690Y-94689276D01*
X95610690Y-94689279D01*
X95551746Y-94960238D01*
X95551744Y-94960248D01*
X95550804Y-94964572D01*
X95550488Y-94968983D01*
X95550487Y-94968994D01*
X95537019Y-95157317D01*
X95530390Y-95250000D01*
X83280000Y-95250000D01*
X83280000Y-94496326D01*
X83276549Y-94483450D01*
X83263674Y-94480000D01*
X81796326Y-94480000D01*
X81783450Y-94483450D01*
X81780000Y-94496326D01*
X81780000Y-95963674D01*
X80780000Y-95963674D01*
X80780000Y-94496326D01*
X80776549Y-94483450D01*
X80763674Y-94480000D01*
X79296326Y-94480000D01*
X79283450Y-94483450D01*
X79280000Y-94496326D01*
X79280000Y-95524518D01*
X76708000Y-95524518D01*
X76708000Y-93463674D01*
X79280000Y-93463674D01*
X79283450Y-93476549D01*
X79296326Y-93480000D01*
X80763674Y-93480000D01*
X80776549Y-93476549D01*
X80780000Y-93463674D01*
X81780000Y-93463674D01*
X81783450Y-93476549D01*
X81796326Y-93480000D01*
X83263674Y-93480000D01*
X83276549Y-93476549D01*
X83280000Y-93463674D01*
X83280000Y-92435482D01*
X83279646Y-92428885D01*
X83274426Y-92380332D01*
X83270888Y-92365358D01*
X83226452Y-92246222D01*
X83218037Y-92230810D01*
X83142501Y-92129907D01*
X83130092Y-92117498D01*
X83029189Y-92041962D01*
X83013777Y-92033547D01*
X82894641Y-91989111D01*
X82879667Y-91985573D01*
X82831114Y-91980353D01*
X82824518Y-91980000D01*
X81796326Y-91980000D01*
X81783450Y-91983450D01*
X81780000Y-91996326D01*
X81780000Y-93463674D01*
X80780000Y-93463674D01*
X80780000Y-91996326D01*
X80776549Y-91983450D01*
X80763674Y-91980000D01*
X79735482Y-91980000D01*
X79728885Y-91980353D01*
X79680332Y-91985573D01*
X79665358Y-91989111D01*
X79546222Y-92033547D01*
X79530810Y-92041962D01*
X79429907Y-92117498D01*
X79417498Y-92129907D01*
X79341962Y-92230810D01*
X79333547Y-92246222D01*
X79289111Y-92365358D01*
X79285573Y-92380332D01*
X79280353Y-92428885D01*
X79280000Y-92435482D01*
X79280000Y-93463674D01*
X76708000Y-93463674D01*
X76708000Y-90548000D01*
X76724613Y-90486000D01*
X76770000Y-90440613D01*
X76832000Y-90424000D01*
X150752000Y-90424000D01*
X150814000Y-90440613D01*
G37*
%TD.AperFunction*%
%TD*%
M02*
